%TF.GenerationSoftware,KiCad,Pcbnew,10.0.1*%
%TF.CreationDate,2026-07-10T20:05:17-04:00*%
%TF.ProjectId,ipod-sd-udma,69706f64-2d73-4642-9d75-646d612e6b69,rev?*%
%TF.SameCoordinates,Original*%
%TF.FileFunction,Soldermask,Top*%
%TF.FilePolarity,Negative*%
%FSLAX46Y46*%
G04 Gerber Fmt 4.6, Leading zero omitted, Abs format (unit mm)*
G04 Created by KiCad (PCBNEW 10.0.1) date 2026-07-10 20:05:17*
%MOMM*%
%LPD*%
G01*
G04 APERTURE LIST*
G04 Aperture macros list*
%AMRoundRect*
0 Rectangle with rounded corners*
0 $1 Rounding radius*
0 $2 $3 $4 $5 $6 $7 $8 $9 X,Y pos of 4 corners*
0 Add a 4 corners polygon primitive as box body*
4,1,4,$2,$3,$4,$5,$6,$7,$8,$9,$2,$3,0*
0 Add four circle primitives for the rounded corners*
1,1,$1+$1,$2,$3*
1,1,$1+$1,$4,$5*
1,1,$1+$1,$6,$7*
1,1,$1+$1,$8,$9*
0 Add four rect primitives between the rounded corners*
20,1,$1+$1,$2,$3,$4,$5,0*
20,1,$1+$1,$4,$5,$6,$7,0*
20,1,$1+$1,$6,$7,$8,$9,0*
20,1,$1+$1,$8,$9,$2,$3,0*%
G04 Aperture macros list end*
%ADD10R,0.850000X3.000000*%
%ADD11R,1.000000X1.000000*%
%ADD12C,1.000000*%
%ADD13C,0.990600*%
%ADD14C,0.787400*%
%ADD15RoundRect,0.075000X-0.662500X-0.075000X0.662500X-0.075000X0.662500X0.075000X-0.662500X0.075000X0*%
%ADD16RoundRect,0.075000X-0.075000X-0.662500X0.075000X-0.662500X0.075000X0.662500X-0.075000X0.662500X0*%
G04 APERTURE END LIST*
D10*
%TO.C,J1*%
X137890000Y-160000000D03*
X136620000Y-160000000D03*
X135350000Y-160000000D03*
X134080000Y-160000000D03*
X132810000Y-160000000D03*
X131540000Y-160000000D03*
X130270000Y-160000000D03*
X129000000Y-160000000D03*
X127730000Y-160000000D03*
X126460000Y-160000000D03*
X125190000Y-160000000D03*
X123920000Y-160000000D03*
X122650000Y-160000000D03*
X121380000Y-160000000D03*
X120110000Y-160000000D03*
X118840000Y-160000000D03*
X117570000Y-160000000D03*
X116300000Y-160000000D03*
X115030000Y-160000000D03*
X113760000Y-160000000D03*
X112490000Y-160000000D03*
X111220000Y-160000000D03*
X141700000Y-160000000D03*
X140430000Y-160000000D03*
X139160000Y-160000000D03*
%TD*%
D11*
%TO.C,J5*%
X109300000Y-143000000D03*
D12*
X109300000Y-144270000D03*
X109300000Y-145540000D03*
X109300000Y-146810000D03*
%TD*%
D13*
%TO.C,J3*%
X137960000Y-130030000D03*
X143040000Y-129014000D03*
X143040000Y-131046000D03*
D14*
X139230000Y-130665000D03*
X139230000Y-129395000D03*
X140500000Y-130665000D03*
X140500000Y-129395000D03*
X141770000Y-130665000D03*
X141770000Y-129395000D03*
%TD*%
D15*
%TO.C,U1*%
X115837500Y-132250000D03*
X115837500Y-132750000D03*
X115837500Y-133250000D03*
X115837500Y-133750000D03*
X115837500Y-134250000D03*
X115837500Y-134750000D03*
X115837500Y-135250000D03*
X115837500Y-135750000D03*
X115837500Y-136250000D03*
X115837500Y-136750000D03*
X115837500Y-137250000D03*
X115837500Y-137750000D03*
X115837500Y-138250000D03*
X115837500Y-138750000D03*
X115837500Y-139250000D03*
X115837500Y-139750000D03*
X115837500Y-140250000D03*
X115837500Y-140750000D03*
X115837500Y-141250000D03*
X115837500Y-141750000D03*
X115837500Y-142250000D03*
X115837500Y-142750000D03*
X115837500Y-143250000D03*
X115837500Y-143750000D03*
X115837500Y-144250000D03*
X115837500Y-144750000D03*
X115837500Y-145250000D03*
X115837500Y-145750000D03*
X115837500Y-146250000D03*
X115837500Y-146750000D03*
X115837500Y-147250000D03*
X115837500Y-147750000D03*
X115837500Y-148250000D03*
X115837500Y-148750000D03*
X115837500Y-149250000D03*
X115837500Y-149750000D03*
D16*
X117750000Y-151662500D03*
X118250000Y-151662500D03*
X118750000Y-151662500D03*
X119250000Y-151662500D03*
X119750000Y-151662500D03*
X120250000Y-151662500D03*
X120750000Y-151662500D03*
X121250000Y-151662500D03*
X121750000Y-151662500D03*
X122250000Y-151662500D03*
X122750000Y-151662500D03*
X123250000Y-151662500D03*
X123750000Y-151662500D03*
X124250000Y-151662500D03*
X124750000Y-151662500D03*
X125250000Y-151662500D03*
X125750000Y-151662500D03*
X126250000Y-151662500D03*
X126750000Y-151662500D03*
X127250000Y-151662500D03*
X127750000Y-151662500D03*
X128250000Y-151662500D03*
X128750000Y-151662500D03*
X129250000Y-151662500D03*
X129750000Y-151662500D03*
X130250000Y-151662500D03*
X130750000Y-151662500D03*
X131250000Y-151662500D03*
X131750000Y-151662500D03*
X132250000Y-151662500D03*
X132750000Y-151662500D03*
X133250000Y-151662500D03*
X133750000Y-151662500D03*
X134250000Y-151662500D03*
X134750000Y-151662500D03*
X135250000Y-151662500D03*
D15*
X137162500Y-149750000D03*
X137162500Y-149250000D03*
X137162500Y-148750000D03*
X137162500Y-148250000D03*
X137162500Y-147750000D03*
X137162500Y-147250000D03*
X137162500Y-146750000D03*
X137162500Y-146250000D03*
X137162500Y-145750000D03*
X137162500Y-145250000D03*
X137162500Y-144750000D03*
X137162500Y-144250000D03*
X137162500Y-143750000D03*
X137162500Y-143250000D03*
X137162500Y-142750000D03*
X137162500Y-142250000D03*
X137162500Y-141750000D03*
X137162500Y-141250000D03*
X137162500Y-140750000D03*
X137162500Y-140250000D03*
X137162500Y-139750000D03*
X137162500Y-139250000D03*
X137162500Y-138750000D03*
X137162500Y-138250000D03*
X137162500Y-137750000D03*
X137162500Y-137250000D03*
X137162500Y-136750000D03*
X137162500Y-136250000D03*
X137162500Y-135750000D03*
X137162500Y-135250000D03*
X137162500Y-134750000D03*
X137162500Y-134250000D03*
X137162500Y-133750000D03*
X137162500Y-133250000D03*
X137162500Y-132750000D03*
X137162500Y-132250000D03*
D16*
X135250000Y-130337500D03*
X134750000Y-130337500D03*
X134250000Y-130337500D03*
X133750000Y-130337500D03*
X133250000Y-130337500D03*
X132750000Y-130337500D03*
X132250000Y-130337500D03*
X131750000Y-130337500D03*
X131250000Y-130337500D03*
X130750000Y-130337500D03*
X130250000Y-130337500D03*
X129750000Y-130337500D03*
X129250000Y-130337500D03*
X128750000Y-130337500D03*
X128250000Y-130337500D03*
X127750000Y-130337500D03*
X127250000Y-130337500D03*
X126750000Y-130337500D03*
X126250000Y-130337500D03*
X125750000Y-130337500D03*
X125250000Y-130337500D03*
X124750000Y-130337500D03*
X124250000Y-130337500D03*
X123750000Y-130337500D03*
X123250000Y-130337500D03*
X122750000Y-130337500D03*
X122250000Y-130337500D03*
X121750000Y-130337500D03*
X121250000Y-130337500D03*
X120750000Y-130337500D03*
X120250000Y-130337500D03*
X119750000Y-130337500D03*
X119250000Y-130337500D03*
X118750000Y-130337500D03*
X118250000Y-130337500D03*
X117750000Y-130337500D03*
%TD*%
M02*
