%TF.GenerationSoftware,KiCad,Pcbnew,10.0.1*%
%TF.CreationDate,2026-07-10T20:05:17-04:00*%
%TF.ProjectId,ipod-sd-udma,69706f64-2d73-4642-9d75-646d612e6b69,rev?*%
%TF.SameCoordinates,Original*%
%TF.FileFunction,Legend,Bot*%
%TF.FilePolarity,Positive*%
%FSLAX46Y46*%
G04 Gerber Fmt 4.6, Leading zero omitted, Abs format (unit mm)*
G04 Created by KiCad (PCBNEW 10.0.1) date 2026-07-10 20:05:17*
%MOMM*%
%LPD*%
G01*
G04 APERTURE LIST*
G04 Aperture macros list*
%AMRoundRect*
0 Rectangle with rounded corners*
0 $1 Rounding radius*
0 $2 $3 $4 $5 $6 $7 $8 $9 X,Y pos of 4 corners*
0 Add a 4 corners polygon primitive as box body*
4,1,4,$2,$3,$4,$5,$6,$7,$8,$9,$2,$3,0*
0 Add four circle primitives for the rounded corners*
1,1,$1+$1,$2,$3*
1,1,$1+$1,$4,$5*
1,1,$1+$1,$6,$7*
1,1,$1+$1,$8,$9*
0 Add four rect primitives between the rounded corners*
20,1,$1+$1,$2,$3,$4,$5,0*
20,1,$1+$1,$4,$5,$6,$7,0*
20,1,$1+$1,$6,$7,$8,$9,0*
20,1,$1+$1,$8,$9,$2,$3,0*%
G04 Aperture macros list end*
%ADD10C,0.150000*%
%ADD11C,0.120000*%
%ADD12R,0.850000X3.000000*%
%ADD13R,1.000000X1.000000*%
%ADD14C,1.000000*%
%ADD15C,0.990600*%
%ADD16RoundRect,0.140000X0.140000X0.170000X-0.140000X0.170000X-0.140000X-0.170000X0.140000X-0.170000X0*%
%ADD17RoundRect,0.225000X0.225000X0.250000X-0.225000X0.250000X-0.225000X-0.250000X0.225000X-0.250000X0*%
%ADD18R,0.700000X1.200000*%
%ADD19R,1.000000X0.800000*%
%ADD20R,1.000000X2.800000*%
%ADD21R,1.000000X1.200000*%
%ADD22R,1.300000X1.900000*%
%ADD23RoundRect,0.250000X0.250000X0.475000X-0.250000X0.475000X-0.250000X-0.475000X0.250000X-0.475000X0*%
G04 APERTURE END LIST*
D10*
X125342857Y-143199580D02*
X125390476Y-143247200D01*
X125390476Y-143247200D02*
X125533333Y-143294819D01*
X125533333Y-143294819D02*
X125628571Y-143294819D01*
X125628571Y-143294819D02*
X125771428Y-143247200D01*
X125771428Y-143247200D02*
X125866666Y-143151961D01*
X125866666Y-143151961D02*
X125914285Y-143056723D01*
X125914285Y-143056723D02*
X125961904Y-142866247D01*
X125961904Y-142866247D02*
X125961904Y-142723390D01*
X125961904Y-142723390D02*
X125914285Y-142532914D01*
X125914285Y-142532914D02*
X125866666Y-142437676D01*
X125866666Y-142437676D02*
X125771428Y-142342438D01*
X125771428Y-142342438D02*
X125628571Y-142294819D01*
X125628571Y-142294819D02*
X125533333Y-142294819D01*
X125533333Y-142294819D02*
X125390476Y-142342438D01*
X125390476Y-142342438D02*
X125342857Y-142390057D01*
X124390476Y-143294819D02*
X124961904Y-143294819D01*
X124676190Y-143294819D02*
X124676190Y-142294819D01*
X124676190Y-142294819D02*
X124771428Y-142437676D01*
X124771428Y-142437676D02*
X124866666Y-142532914D01*
X124866666Y-142532914D02*
X124961904Y-142580533D01*
X123438095Y-143294819D02*
X124009523Y-143294819D01*
X123723809Y-143294819D02*
X123723809Y-142294819D01*
X123723809Y-142294819D02*
X123819047Y-142437676D01*
X123819047Y-142437676D02*
X123914285Y-142532914D01*
X123914285Y-142532914D02*
X124009523Y-142580533D01*
X117666666Y-140199580D02*
X117714285Y-140247200D01*
X117714285Y-140247200D02*
X117857142Y-140294819D01*
X117857142Y-140294819D02*
X117952380Y-140294819D01*
X117952380Y-140294819D02*
X118095237Y-140247200D01*
X118095237Y-140247200D02*
X118190475Y-140151961D01*
X118190475Y-140151961D02*
X118238094Y-140056723D01*
X118238094Y-140056723D02*
X118285713Y-139866247D01*
X118285713Y-139866247D02*
X118285713Y-139723390D01*
X118285713Y-139723390D02*
X118238094Y-139532914D01*
X118238094Y-139532914D02*
X118190475Y-139437676D01*
X118190475Y-139437676D02*
X118095237Y-139342438D01*
X118095237Y-139342438D02*
X117952380Y-139294819D01*
X117952380Y-139294819D02*
X117857142Y-139294819D01*
X117857142Y-139294819D02*
X117714285Y-139342438D01*
X117714285Y-139342438D02*
X117666666Y-139390057D01*
X116809523Y-139294819D02*
X116999999Y-139294819D01*
X116999999Y-139294819D02*
X117095237Y-139342438D01*
X117095237Y-139342438D02*
X117142856Y-139390057D01*
X117142856Y-139390057D02*
X117238094Y-139532914D01*
X117238094Y-139532914D02*
X117285713Y-139723390D01*
X117285713Y-139723390D02*
X117285713Y-140104342D01*
X117285713Y-140104342D02*
X117238094Y-140199580D01*
X117238094Y-140199580D02*
X117190475Y-140247200D01*
X117190475Y-140247200D02*
X117095237Y-140294819D01*
X117095237Y-140294819D02*
X116904761Y-140294819D01*
X116904761Y-140294819D02*
X116809523Y-140247200D01*
X116809523Y-140247200D02*
X116761904Y-140199580D01*
X116761904Y-140199580D02*
X116714285Y-140104342D01*
X116714285Y-140104342D02*
X116714285Y-139866247D01*
X116714285Y-139866247D02*
X116761904Y-139771009D01*
X116761904Y-139771009D02*
X116809523Y-139723390D01*
X116809523Y-139723390D02*
X116904761Y-139675771D01*
X116904761Y-139675771D02*
X117095237Y-139675771D01*
X117095237Y-139675771D02*
X117190475Y-139723390D01*
X117190475Y-139723390D02*
X117238094Y-139771009D01*
X117238094Y-139771009D02*
X117285713Y-139866247D01*
X135666666Y-134199580D02*
X135714285Y-134247200D01*
X135714285Y-134247200D02*
X135857142Y-134294819D01*
X135857142Y-134294819D02*
X135952380Y-134294819D01*
X135952380Y-134294819D02*
X136095237Y-134247200D01*
X136095237Y-134247200D02*
X136190475Y-134151961D01*
X136190475Y-134151961D02*
X136238094Y-134056723D01*
X136238094Y-134056723D02*
X136285713Y-133866247D01*
X136285713Y-133866247D02*
X136285713Y-133723390D01*
X136285713Y-133723390D02*
X136238094Y-133532914D01*
X136238094Y-133532914D02*
X136190475Y-133437676D01*
X136190475Y-133437676D02*
X136095237Y-133342438D01*
X136095237Y-133342438D02*
X135952380Y-133294819D01*
X135952380Y-133294819D02*
X135857142Y-133294819D01*
X135857142Y-133294819D02*
X135714285Y-133342438D01*
X135714285Y-133342438D02*
X135666666Y-133390057D01*
X135285713Y-133390057D02*
X135238094Y-133342438D01*
X135238094Y-133342438D02*
X135142856Y-133294819D01*
X135142856Y-133294819D02*
X134904761Y-133294819D01*
X134904761Y-133294819D02*
X134809523Y-133342438D01*
X134809523Y-133342438D02*
X134761904Y-133390057D01*
X134761904Y-133390057D02*
X134714285Y-133485295D01*
X134714285Y-133485295D02*
X134714285Y-133580533D01*
X134714285Y-133580533D02*
X134761904Y-133723390D01*
X134761904Y-133723390D02*
X135333332Y-134294819D01*
X135333332Y-134294819D02*
X134714285Y-134294819D01*
X135666666Y-137199580D02*
X135714285Y-137247200D01*
X135714285Y-137247200D02*
X135857142Y-137294819D01*
X135857142Y-137294819D02*
X135952380Y-137294819D01*
X135952380Y-137294819D02*
X136095237Y-137247200D01*
X136095237Y-137247200D02*
X136190475Y-137151961D01*
X136190475Y-137151961D02*
X136238094Y-137056723D01*
X136238094Y-137056723D02*
X136285713Y-136866247D01*
X136285713Y-136866247D02*
X136285713Y-136723390D01*
X136285713Y-136723390D02*
X136238094Y-136532914D01*
X136238094Y-136532914D02*
X136190475Y-136437676D01*
X136190475Y-136437676D02*
X136095237Y-136342438D01*
X136095237Y-136342438D02*
X135952380Y-136294819D01*
X135952380Y-136294819D02*
X135857142Y-136294819D01*
X135857142Y-136294819D02*
X135714285Y-136342438D01*
X135714285Y-136342438D02*
X135666666Y-136390057D01*
X134809523Y-136628152D02*
X134809523Y-137294819D01*
X135047618Y-136247200D02*
X135285713Y-136961485D01*
X135285713Y-136961485D02*
X134666666Y-136961485D01*
X117666666Y-145929580D02*
X117714285Y-145977200D01*
X117714285Y-145977200D02*
X117857142Y-146024819D01*
X117857142Y-146024819D02*
X117952380Y-146024819D01*
X117952380Y-146024819D02*
X118095237Y-145977200D01*
X118095237Y-145977200D02*
X118190475Y-145881961D01*
X118190475Y-145881961D02*
X118238094Y-145786723D01*
X118238094Y-145786723D02*
X118285713Y-145596247D01*
X118285713Y-145596247D02*
X118285713Y-145453390D01*
X118285713Y-145453390D02*
X118238094Y-145262914D01*
X118238094Y-145262914D02*
X118190475Y-145167676D01*
X118190475Y-145167676D02*
X118095237Y-145072438D01*
X118095237Y-145072438D02*
X117952380Y-145024819D01*
X117952380Y-145024819D02*
X117857142Y-145024819D01*
X117857142Y-145024819D02*
X117714285Y-145072438D01*
X117714285Y-145072438D02*
X117666666Y-145120057D01*
X116761904Y-145024819D02*
X117238094Y-145024819D01*
X117238094Y-145024819D02*
X117285713Y-145501009D01*
X117285713Y-145501009D02*
X117238094Y-145453390D01*
X117238094Y-145453390D02*
X117142856Y-145405771D01*
X117142856Y-145405771D02*
X116904761Y-145405771D01*
X116904761Y-145405771D02*
X116809523Y-145453390D01*
X116809523Y-145453390D02*
X116761904Y-145501009D01*
X116761904Y-145501009D02*
X116714285Y-145596247D01*
X116714285Y-145596247D02*
X116714285Y-145834342D01*
X116714285Y-145834342D02*
X116761904Y-145929580D01*
X116761904Y-145929580D02*
X116809523Y-145977200D01*
X116809523Y-145977200D02*
X116904761Y-146024819D01*
X116904761Y-146024819D02*
X117142856Y-146024819D01*
X117142856Y-146024819D02*
X117238094Y-145977200D01*
X117238094Y-145977200D02*
X117285713Y-145929580D01*
X117666666Y-137199580D02*
X117714285Y-137247200D01*
X117714285Y-137247200D02*
X117857142Y-137294819D01*
X117857142Y-137294819D02*
X117952380Y-137294819D01*
X117952380Y-137294819D02*
X118095237Y-137247200D01*
X118095237Y-137247200D02*
X118190475Y-137151961D01*
X118190475Y-137151961D02*
X118238094Y-137056723D01*
X118238094Y-137056723D02*
X118285713Y-136866247D01*
X118285713Y-136866247D02*
X118285713Y-136723390D01*
X118285713Y-136723390D02*
X118238094Y-136532914D01*
X118238094Y-136532914D02*
X118190475Y-136437676D01*
X118190475Y-136437676D02*
X118095237Y-136342438D01*
X118095237Y-136342438D02*
X117952380Y-136294819D01*
X117952380Y-136294819D02*
X117857142Y-136294819D01*
X117857142Y-136294819D02*
X117714285Y-136342438D01*
X117714285Y-136342438D02*
X117666666Y-136390057D01*
X117333332Y-136294819D02*
X116714285Y-136294819D01*
X116714285Y-136294819D02*
X117047618Y-136675771D01*
X117047618Y-136675771D02*
X116904761Y-136675771D01*
X116904761Y-136675771D02*
X116809523Y-136723390D01*
X116809523Y-136723390D02*
X116761904Y-136771009D01*
X116761904Y-136771009D02*
X116714285Y-136866247D01*
X116714285Y-136866247D02*
X116714285Y-137104342D01*
X116714285Y-137104342D02*
X116761904Y-137199580D01*
X116761904Y-137199580D02*
X116809523Y-137247200D01*
X116809523Y-137247200D02*
X116904761Y-137294819D01*
X116904761Y-137294819D02*
X117190475Y-137294819D01*
X117190475Y-137294819D02*
X117285713Y-137247200D01*
X117285713Y-137247200D02*
X117333332Y-137199580D01*
X117666666Y-143199580D02*
X117714285Y-143247200D01*
X117714285Y-143247200D02*
X117857142Y-143294819D01*
X117857142Y-143294819D02*
X117952380Y-143294819D01*
X117952380Y-143294819D02*
X118095237Y-143247200D01*
X118095237Y-143247200D02*
X118190475Y-143151961D01*
X118190475Y-143151961D02*
X118238094Y-143056723D01*
X118238094Y-143056723D02*
X118285713Y-142866247D01*
X118285713Y-142866247D02*
X118285713Y-142723390D01*
X118285713Y-142723390D02*
X118238094Y-142532914D01*
X118238094Y-142532914D02*
X118190475Y-142437676D01*
X118190475Y-142437676D02*
X118095237Y-142342438D01*
X118095237Y-142342438D02*
X117952380Y-142294819D01*
X117952380Y-142294819D02*
X117857142Y-142294819D01*
X117857142Y-142294819D02*
X117714285Y-142342438D01*
X117714285Y-142342438D02*
X117666666Y-142390057D01*
X117095237Y-142723390D02*
X117190475Y-142675771D01*
X117190475Y-142675771D02*
X117238094Y-142628152D01*
X117238094Y-142628152D02*
X117285713Y-142532914D01*
X117285713Y-142532914D02*
X117285713Y-142485295D01*
X117285713Y-142485295D02*
X117238094Y-142390057D01*
X117238094Y-142390057D02*
X117190475Y-142342438D01*
X117190475Y-142342438D02*
X117095237Y-142294819D01*
X117095237Y-142294819D02*
X116904761Y-142294819D01*
X116904761Y-142294819D02*
X116809523Y-142342438D01*
X116809523Y-142342438D02*
X116761904Y-142390057D01*
X116761904Y-142390057D02*
X116714285Y-142485295D01*
X116714285Y-142485295D02*
X116714285Y-142532914D01*
X116714285Y-142532914D02*
X116761904Y-142628152D01*
X116761904Y-142628152D02*
X116809523Y-142675771D01*
X116809523Y-142675771D02*
X116904761Y-142723390D01*
X116904761Y-142723390D02*
X117095237Y-142723390D01*
X117095237Y-142723390D02*
X117190475Y-142771009D01*
X117190475Y-142771009D02*
X117238094Y-142818628D01*
X117238094Y-142818628D02*
X117285713Y-142913866D01*
X117285713Y-142913866D02*
X117285713Y-143104342D01*
X117285713Y-143104342D02*
X117238094Y-143199580D01*
X117238094Y-143199580D02*
X117190475Y-143247200D01*
X117190475Y-143247200D02*
X117095237Y-143294819D01*
X117095237Y-143294819D02*
X116904761Y-143294819D01*
X116904761Y-143294819D02*
X116809523Y-143247200D01*
X116809523Y-143247200D02*
X116761904Y-143199580D01*
X116761904Y-143199580D02*
X116714285Y-143104342D01*
X116714285Y-143104342D02*
X116714285Y-142913866D01*
X116714285Y-142913866D02*
X116761904Y-142818628D01*
X116761904Y-142818628D02*
X116809523Y-142771009D01*
X116809523Y-142771009D02*
X116904761Y-142723390D01*
X136142857Y-143199580D02*
X136190476Y-143247200D01*
X136190476Y-143247200D02*
X136333333Y-143294819D01*
X136333333Y-143294819D02*
X136428571Y-143294819D01*
X136428571Y-143294819D02*
X136571428Y-143247200D01*
X136571428Y-143247200D02*
X136666666Y-143151961D01*
X136666666Y-143151961D02*
X136714285Y-143056723D01*
X136714285Y-143056723D02*
X136761904Y-142866247D01*
X136761904Y-142866247D02*
X136761904Y-142723390D01*
X136761904Y-142723390D02*
X136714285Y-142532914D01*
X136714285Y-142532914D02*
X136666666Y-142437676D01*
X136666666Y-142437676D02*
X136571428Y-142342438D01*
X136571428Y-142342438D02*
X136428571Y-142294819D01*
X136428571Y-142294819D02*
X136333333Y-142294819D01*
X136333333Y-142294819D02*
X136190476Y-142342438D01*
X136190476Y-142342438D02*
X136142857Y-142390057D01*
X135190476Y-143294819D02*
X135761904Y-143294819D01*
X135476190Y-143294819D02*
X135476190Y-142294819D01*
X135476190Y-142294819D02*
X135571428Y-142437676D01*
X135571428Y-142437676D02*
X135666666Y-142532914D01*
X135666666Y-142532914D02*
X135761904Y-142580533D01*
X134333333Y-142628152D02*
X134333333Y-143294819D01*
X134571428Y-142247200D02*
X134809523Y-142961485D01*
X134809523Y-142961485D02*
X134190476Y-142961485D01*
X126683333Y-143884819D02*
X126683333Y-144599104D01*
X126683333Y-144599104D02*
X126730952Y-144741961D01*
X126730952Y-144741961D02*
X126826190Y-144837200D01*
X126826190Y-144837200D02*
X126969047Y-144884819D01*
X126969047Y-144884819D02*
X127064285Y-144884819D01*
X126254761Y-143980057D02*
X126207142Y-143932438D01*
X126207142Y-143932438D02*
X126111904Y-143884819D01*
X126111904Y-143884819D02*
X125873809Y-143884819D01*
X125873809Y-143884819D02*
X125778571Y-143932438D01*
X125778571Y-143932438D02*
X125730952Y-143980057D01*
X125730952Y-143980057D02*
X125683333Y-144075295D01*
X125683333Y-144075295D02*
X125683333Y-144170533D01*
X125683333Y-144170533D02*
X125730952Y-144313390D01*
X125730952Y-144313390D02*
X126302380Y-144884819D01*
X126302380Y-144884819D02*
X125683333Y-144884819D01*
X121742857Y-145679580D02*
X121790476Y-145727200D01*
X121790476Y-145727200D02*
X121933333Y-145774819D01*
X121933333Y-145774819D02*
X122028571Y-145774819D01*
X122028571Y-145774819D02*
X122171428Y-145727200D01*
X122171428Y-145727200D02*
X122266666Y-145631961D01*
X122266666Y-145631961D02*
X122314285Y-145536723D01*
X122314285Y-145536723D02*
X122361904Y-145346247D01*
X122361904Y-145346247D02*
X122361904Y-145203390D01*
X122361904Y-145203390D02*
X122314285Y-145012914D01*
X122314285Y-145012914D02*
X122266666Y-144917676D01*
X122266666Y-144917676D02*
X122171428Y-144822438D01*
X122171428Y-144822438D02*
X122028571Y-144774819D01*
X122028571Y-144774819D02*
X121933333Y-144774819D01*
X121933333Y-144774819D02*
X121790476Y-144822438D01*
X121790476Y-144822438D02*
X121742857Y-144870057D01*
X120790476Y-145774819D02*
X121361904Y-145774819D01*
X121076190Y-145774819D02*
X121076190Y-144774819D01*
X121076190Y-144774819D02*
X121171428Y-144917676D01*
X121171428Y-144917676D02*
X121266666Y-145012914D01*
X121266666Y-145012914D02*
X121361904Y-145060533D01*
X120171428Y-144774819D02*
X120076190Y-144774819D01*
X120076190Y-144774819D02*
X119980952Y-144822438D01*
X119980952Y-144822438D02*
X119933333Y-144870057D01*
X119933333Y-144870057D02*
X119885714Y-144965295D01*
X119885714Y-144965295D02*
X119838095Y-145155771D01*
X119838095Y-145155771D02*
X119838095Y-145393866D01*
X119838095Y-145393866D02*
X119885714Y-145584342D01*
X119885714Y-145584342D02*
X119933333Y-145679580D01*
X119933333Y-145679580D02*
X119980952Y-145727200D01*
X119980952Y-145727200D02*
X120076190Y-145774819D01*
X120076190Y-145774819D02*
X120171428Y-145774819D01*
X120171428Y-145774819D02*
X120266666Y-145727200D01*
X120266666Y-145727200D02*
X120314285Y-145679580D01*
X120314285Y-145679580D02*
X120361904Y-145584342D01*
X120361904Y-145584342D02*
X120409523Y-145393866D01*
X120409523Y-145393866D02*
X120409523Y-145155771D01*
X120409523Y-145155771D02*
X120361904Y-144965295D01*
X120361904Y-144965295D02*
X120314285Y-144870057D01*
X120314285Y-144870057D02*
X120266666Y-144822438D01*
X120266666Y-144822438D02*
X120171428Y-144774819D01*
X132542857Y-143199580D02*
X132590476Y-143247200D01*
X132590476Y-143247200D02*
X132733333Y-143294819D01*
X132733333Y-143294819D02*
X132828571Y-143294819D01*
X132828571Y-143294819D02*
X132971428Y-143247200D01*
X132971428Y-143247200D02*
X133066666Y-143151961D01*
X133066666Y-143151961D02*
X133114285Y-143056723D01*
X133114285Y-143056723D02*
X133161904Y-142866247D01*
X133161904Y-142866247D02*
X133161904Y-142723390D01*
X133161904Y-142723390D02*
X133114285Y-142532914D01*
X133114285Y-142532914D02*
X133066666Y-142437676D01*
X133066666Y-142437676D02*
X132971428Y-142342438D01*
X132971428Y-142342438D02*
X132828571Y-142294819D01*
X132828571Y-142294819D02*
X132733333Y-142294819D01*
X132733333Y-142294819D02*
X132590476Y-142342438D01*
X132590476Y-142342438D02*
X132542857Y-142390057D01*
X131590476Y-143294819D02*
X132161904Y-143294819D01*
X131876190Y-143294819D02*
X131876190Y-142294819D01*
X131876190Y-142294819D02*
X131971428Y-142437676D01*
X131971428Y-142437676D02*
X132066666Y-142532914D01*
X132066666Y-142532914D02*
X132161904Y-142580533D01*
X131257142Y-142294819D02*
X130638095Y-142294819D01*
X130638095Y-142294819D02*
X130971428Y-142675771D01*
X130971428Y-142675771D02*
X130828571Y-142675771D01*
X130828571Y-142675771D02*
X130733333Y-142723390D01*
X130733333Y-142723390D02*
X130685714Y-142771009D01*
X130685714Y-142771009D02*
X130638095Y-142866247D01*
X130638095Y-142866247D02*
X130638095Y-143104342D01*
X130638095Y-143104342D02*
X130685714Y-143199580D01*
X130685714Y-143199580D02*
X130733333Y-143247200D01*
X130733333Y-143247200D02*
X130828571Y-143294819D01*
X130828571Y-143294819D02*
X131114285Y-143294819D01*
X131114285Y-143294819D02*
X131209523Y-143247200D01*
X131209523Y-143247200D02*
X131257142Y-143199580D01*
X128942857Y-143199580D02*
X128990476Y-143247200D01*
X128990476Y-143247200D02*
X129133333Y-143294819D01*
X129133333Y-143294819D02*
X129228571Y-143294819D01*
X129228571Y-143294819D02*
X129371428Y-143247200D01*
X129371428Y-143247200D02*
X129466666Y-143151961D01*
X129466666Y-143151961D02*
X129514285Y-143056723D01*
X129514285Y-143056723D02*
X129561904Y-142866247D01*
X129561904Y-142866247D02*
X129561904Y-142723390D01*
X129561904Y-142723390D02*
X129514285Y-142532914D01*
X129514285Y-142532914D02*
X129466666Y-142437676D01*
X129466666Y-142437676D02*
X129371428Y-142342438D01*
X129371428Y-142342438D02*
X129228571Y-142294819D01*
X129228571Y-142294819D02*
X129133333Y-142294819D01*
X129133333Y-142294819D02*
X128990476Y-142342438D01*
X128990476Y-142342438D02*
X128942857Y-142390057D01*
X127990476Y-143294819D02*
X128561904Y-143294819D01*
X128276190Y-143294819D02*
X128276190Y-142294819D01*
X128276190Y-142294819D02*
X128371428Y-142437676D01*
X128371428Y-142437676D02*
X128466666Y-142532914D01*
X128466666Y-142532914D02*
X128561904Y-142580533D01*
X127609523Y-142390057D02*
X127561904Y-142342438D01*
X127561904Y-142342438D02*
X127466666Y-142294819D01*
X127466666Y-142294819D02*
X127228571Y-142294819D01*
X127228571Y-142294819D02*
X127133333Y-142342438D01*
X127133333Y-142342438D02*
X127085714Y-142390057D01*
X127085714Y-142390057D02*
X127038095Y-142485295D01*
X127038095Y-142485295D02*
X127038095Y-142580533D01*
X127038095Y-142580533D02*
X127085714Y-142723390D01*
X127085714Y-142723390D02*
X127657142Y-143294819D01*
X127657142Y-143294819D02*
X127038095Y-143294819D01*
X135666666Y-140199580D02*
X135714285Y-140247200D01*
X135714285Y-140247200D02*
X135857142Y-140294819D01*
X135857142Y-140294819D02*
X135952380Y-140294819D01*
X135952380Y-140294819D02*
X136095237Y-140247200D01*
X136095237Y-140247200D02*
X136190475Y-140151961D01*
X136190475Y-140151961D02*
X136238094Y-140056723D01*
X136238094Y-140056723D02*
X136285713Y-139866247D01*
X136285713Y-139866247D02*
X136285713Y-139723390D01*
X136285713Y-139723390D02*
X136238094Y-139532914D01*
X136238094Y-139532914D02*
X136190475Y-139437676D01*
X136190475Y-139437676D02*
X136095237Y-139342438D01*
X136095237Y-139342438D02*
X135952380Y-139294819D01*
X135952380Y-139294819D02*
X135857142Y-139294819D01*
X135857142Y-139294819D02*
X135714285Y-139342438D01*
X135714285Y-139342438D02*
X135666666Y-139390057D01*
X135333332Y-139294819D02*
X134666666Y-139294819D01*
X134666666Y-139294819D02*
X135095237Y-140294819D01*
X121266666Y-143199580D02*
X121314285Y-143247200D01*
X121314285Y-143247200D02*
X121457142Y-143294819D01*
X121457142Y-143294819D02*
X121552380Y-143294819D01*
X121552380Y-143294819D02*
X121695237Y-143247200D01*
X121695237Y-143247200D02*
X121790475Y-143151961D01*
X121790475Y-143151961D02*
X121838094Y-143056723D01*
X121838094Y-143056723D02*
X121885713Y-142866247D01*
X121885713Y-142866247D02*
X121885713Y-142723390D01*
X121885713Y-142723390D02*
X121838094Y-142532914D01*
X121838094Y-142532914D02*
X121790475Y-142437676D01*
X121790475Y-142437676D02*
X121695237Y-142342438D01*
X121695237Y-142342438D02*
X121552380Y-142294819D01*
X121552380Y-142294819D02*
X121457142Y-142294819D01*
X121457142Y-142294819D02*
X121314285Y-142342438D01*
X121314285Y-142342438D02*
X121266666Y-142390057D01*
X120790475Y-143294819D02*
X120599999Y-143294819D01*
X120599999Y-143294819D02*
X120504761Y-143247200D01*
X120504761Y-143247200D02*
X120457142Y-143199580D01*
X120457142Y-143199580D02*
X120361904Y-143056723D01*
X120361904Y-143056723D02*
X120314285Y-142866247D01*
X120314285Y-142866247D02*
X120314285Y-142485295D01*
X120314285Y-142485295D02*
X120361904Y-142390057D01*
X120361904Y-142390057D02*
X120409523Y-142342438D01*
X120409523Y-142342438D02*
X120504761Y-142294819D01*
X120504761Y-142294819D02*
X120695237Y-142294819D01*
X120695237Y-142294819D02*
X120790475Y-142342438D01*
X120790475Y-142342438D02*
X120838094Y-142390057D01*
X120838094Y-142390057D02*
X120885713Y-142485295D01*
X120885713Y-142485295D02*
X120885713Y-142723390D01*
X120885713Y-142723390D02*
X120838094Y-142818628D01*
X120838094Y-142818628D02*
X120790475Y-142866247D01*
X120790475Y-142866247D02*
X120695237Y-142913866D01*
X120695237Y-142913866D02*
X120504761Y-142913866D01*
X120504761Y-142913866D02*
X120409523Y-142866247D01*
X120409523Y-142866247D02*
X120361904Y-142818628D01*
X120361904Y-142818628D02*
X120314285Y-142723390D01*
X125342857Y-145679580D02*
X125390476Y-145727200D01*
X125390476Y-145727200D02*
X125533333Y-145774819D01*
X125533333Y-145774819D02*
X125628571Y-145774819D01*
X125628571Y-145774819D02*
X125771428Y-145727200D01*
X125771428Y-145727200D02*
X125866666Y-145631961D01*
X125866666Y-145631961D02*
X125914285Y-145536723D01*
X125914285Y-145536723D02*
X125961904Y-145346247D01*
X125961904Y-145346247D02*
X125961904Y-145203390D01*
X125961904Y-145203390D02*
X125914285Y-145012914D01*
X125914285Y-145012914D02*
X125866666Y-144917676D01*
X125866666Y-144917676D02*
X125771428Y-144822438D01*
X125771428Y-144822438D02*
X125628571Y-144774819D01*
X125628571Y-144774819D02*
X125533333Y-144774819D01*
X125533333Y-144774819D02*
X125390476Y-144822438D01*
X125390476Y-144822438D02*
X125342857Y-144870057D01*
X124390476Y-145774819D02*
X124961904Y-145774819D01*
X124676190Y-145774819D02*
X124676190Y-144774819D01*
X124676190Y-144774819D02*
X124771428Y-144917676D01*
X124771428Y-144917676D02*
X124866666Y-145012914D01*
X124866666Y-145012914D02*
X124961904Y-145060533D01*
X123533333Y-144774819D02*
X123723809Y-144774819D01*
X123723809Y-144774819D02*
X123819047Y-144822438D01*
X123819047Y-144822438D02*
X123866666Y-144870057D01*
X123866666Y-144870057D02*
X123961904Y-145012914D01*
X123961904Y-145012914D02*
X124009523Y-145203390D01*
X124009523Y-145203390D02*
X124009523Y-145584342D01*
X124009523Y-145584342D02*
X123961904Y-145679580D01*
X123961904Y-145679580D02*
X123914285Y-145727200D01*
X123914285Y-145727200D02*
X123819047Y-145774819D01*
X123819047Y-145774819D02*
X123628571Y-145774819D01*
X123628571Y-145774819D02*
X123533333Y-145727200D01*
X123533333Y-145727200D02*
X123485714Y-145679580D01*
X123485714Y-145679580D02*
X123438095Y-145584342D01*
X123438095Y-145584342D02*
X123438095Y-145346247D01*
X123438095Y-145346247D02*
X123485714Y-145251009D01*
X123485714Y-145251009D02*
X123533333Y-145203390D01*
X123533333Y-145203390D02*
X123628571Y-145155771D01*
X123628571Y-145155771D02*
X123819047Y-145155771D01*
X123819047Y-145155771D02*
X123914285Y-145203390D01*
X123914285Y-145203390D02*
X123961904Y-145251009D01*
X123961904Y-145251009D02*
X124009523Y-145346247D01*
X128942857Y-146199580D02*
X128990476Y-146247200D01*
X128990476Y-146247200D02*
X129133333Y-146294819D01*
X129133333Y-146294819D02*
X129228571Y-146294819D01*
X129228571Y-146294819D02*
X129371428Y-146247200D01*
X129371428Y-146247200D02*
X129466666Y-146151961D01*
X129466666Y-146151961D02*
X129514285Y-146056723D01*
X129514285Y-146056723D02*
X129561904Y-145866247D01*
X129561904Y-145866247D02*
X129561904Y-145723390D01*
X129561904Y-145723390D02*
X129514285Y-145532914D01*
X129514285Y-145532914D02*
X129466666Y-145437676D01*
X129466666Y-145437676D02*
X129371428Y-145342438D01*
X129371428Y-145342438D02*
X129228571Y-145294819D01*
X129228571Y-145294819D02*
X129133333Y-145294819D01*
X129133333Y-145294819D02*
X128990476Y-145342438D01*
X128990476Y-145342438D02*
X128942857Y-145390057D01*
X127990476Y-146294819D02*
X128561904Y-146294819D01*
X128276190Y-146294819D02*
X128276190Y-145294819D01*
X128276190Y-145294819D02*
X128371428Y-145437676D01*
X128371428Y-145437676D02*
X128466666Y-145532914D01*
X128466666Y-145532914D02*
X128561904Y-145580533D01*
X127085714Y-145294819D02*
X127561904Y-145294819D01*
X127561904Y-145294819D02*
X127609523Y-145771009D01*
X127609523Y-145771009D02*
X127561904Y-145723390D01*
X127561904Y-145723390D02*
X127466666Y-145675771D01*
X127466666Y-145675771D02*
X127228571Y-145675771D01*
X127228571Y-145675771D02*
X127133333Y-145723390D01*
X127133333Y-145723390D02*
X127085714Y-145771009D01*
X127085714Y-145771009D02*
X127038095Y-145866247D01*
X127038095Y-145866247D02*
X127038095Y-146104342D01*
X127038095Y-146104342D02*
X127085714Y-146199580D01*
X127085714Y-146199580D02*
X127133333Y-146247200D01*
X127133333Y-146247200D02*
X127228571Y-146294819D01*
X127228571Y-146294819D02*
X127466666Y-146294819D01*
X127466666Y-146294819D02*
X127561904Y-146247200D01*
X127561904Y-146247200D02*
X127609523Y-146199580D01*
X117666666Y-134199580D02*
X117714285Y-134247200D01*
X117714285Y-134247200D02*
X117857142Y-134294819D01*
X117857142Y-134294819D02*
X117952380Y-134294819D01*
X117952380Y-134294819D02*
X118095237Y-134247200D01*
X118095237Y-134247200D02*
X118190475Y-134151961D01*
X118190475Y-134151961D02*
X118238094Y-134056723D01*
X118238094Y-134056723D02*
X118285713Y-133866247D01*
X118285713Y-133866247D02*
X118285713Y-133723390D01*
X118285713Y-133723390D02*
X118238094Y-133532914D01*
X118238094Y-133532914D02*
X118190475Y-133437676D01*
X118190475Y-133437676D02*
X118095237Y-133342438D01*
X118095237Y-133342438D02*
X117952380Y-133294819D01*
X117952380Y-133294819D02*
X117857142Y-133294819D01*
X117857142Y-133294819D02*
X117714285Y-133342438D01*
X117714285Y-133342438D02*
X117666666Y-133390057D01*
X116714285Y-134294819D02*
X117285713Y-134294819D01*
X116999999Y-134294819D02*
X116999999Y-133294819D01*
X116999999Y-133294819D02*
X117095237Y-133437676D01*
X117095237Y-133437676D02*
X117190475Y-133532914D01*
X117190475Y-133532914D02*
X117285713Y-133580533D01*
%TO.C,C11*%
D11*
X124807836Y-143640000D02*
X124592164Y-143640000D01*
X124807836Y-144360000D02*
X124592164Y-144360000D01*
%TO.C,C6*%
X117607836Y-140640000D02*
X117392164Y-140640000D01*
X117607836Y-141360000D02*
X117392164Y-141360000D01*
%TO.C,C2*%
X135607836Y-134640000D02*
X135392164Y-134640000D01*
X135607836Y-135360000D02*
X135392164Y-135360000D01*
%TO.C,C4*%
X135607836Y-137640000D02*
X135392164Y-137640000D01*
X135607836Y-138360000D02*
X135392164Y-138360000D01*
%TO.C,C5*%
X117640580Y-146490000D02*
X117359420Y-146490000D01*
X117640580Y-147510000D02*
X117359420Y-147510000D01*
%TO.C,C3*%
X117607836Y-137640000D02*
X117392164Y-137640000D01*
X117607836Y-138360000D02*
X117392164Y-138360000D01*
%TO.C,C8*%
X117607836Y-143640000D02*
X117392164Y-143640000D01*
X117607836Y-144360000D02*
X117392164Y-144360000D01*
%TO.C,C14*%
X135607836Y-143640000D02*
X135392164Y-143640000D01*
X135607836Y-144360000D02*
X135392164Y-144360000D01*
%TO.C,J2*%
X119450000Y-131480000D02*
X119450000Y-129680000D01*
X119450000Y-137480000D02*
X119450000Y-132780000D01*
X119450000Y-142790000D02*
X119450000Y-139180000D01*
X119900000Y-142790000D02*
X119450000Y-142790000D01*
X120480000Y-126520000D02*
X120280000Y-126720000D01*
X120480000Y-126520000D02*
X122340000Y-126520000D01*
X122340000Y-126520000D02*
X122550000Y-126720000D01*
X122550000Y-126870000D02*
X122550000Y-126720000D01*
X122550000Y-126870000D02*
X128920000Y-126870000D01*
X129430000Y-126520000D02*
X128920000Y-126870000D01*
X131500000Y-142790000D02*
X133420000Y-142790000D01*
X131740000Y-126520000D02*
X129430000Y-126520000D01*
X131740000Y-126520000D02*
X131940000Y-126720000D01*
X131940000Y-126720000D02*
X132200000Y-126720000D01*
X133420000Y-142790000D02*
X133420000Y-128780000D01*
%TO.C,C10*%
X121361252Y-146265000D02*
X120838748Y-146265000D01*
X121361252Y-147735000D02*
X120838748Y-147735000D01*
%TO.C,C13*%
X132007836Y-143640000D02*
X131792164Y-143640000D01*
X132007836Y-144360000D02*
X131792164Y-144360000D01*
%TO.C,C12*%
X128407836Y-143640000D02*
X128192164Y-143640000D01*
X128407836Y-144360000D02*
X128192164Y-144360000D01*
%TO.C,C7*%
X135607836Y-140640000D02*
X135392164Y-140640000D01*
X135607836Y-141360000D02*
X135392164Y-141360000D01*
%TO.C,C9*%
X121207836Y-143640000D02*
X120992164Y-143640000D01*
X121207836Y-144360000D02*
X120992164Y-144360000D01*
%TO.C,C16*%
X124961252Y-146265000D02*
X124438748Y-146265000D01*
X124961252Y-147735000D02*
X124438748Y-147735000D01*
%TO.C,C15*%
X128407836Y-146640000D02*
X128192164Y-146640000D01*
X128407836Y-147360000D02*
X128192164Y-147360000D01*
%TO.C,C1*%
X117607836Y-134640000D02*
X117392164Y-134640000D01*
X117607836Y-135360000D02*
X117392164Y-135360000D01*
%TD*%
%LPC*%
D12*
%TO.C,J1*%
X137890000Y-160000000D03*
X136620000Y-160000000D03*
X135350000Y-160000000D03*
X134080000Y-160000000D03*
X132810000Y-160000000D03*
X131540000Y-160000000D03*
X130270000Y-160000000D03*
X129000000Y-160000000D03*
X127730000Y-160000000D03*
X126460000Y-160000000D03*
X125190000Y-160000000D03*
X123920000Y-160000000D03*
X122650000Y-160000000D03*
X121380000Y-160000000D03*
X120110000Y-160000000D03*
X118840000Y-160000000D03*
X117570000Y-160000000D03*
X116300000Y-160000000D03*
X115030000Y-160000000D03*
X113760000Y-160000000D03*
X112490000Y-160000000D03*
X111220000Y-160000000D03*
X141700000Y-160000000D03*
X140430000Y-160000000D03*
X139160000Y-160000000D03*
%TD*%
D13*
%TO.C,J5*%
X109300000Y-143000000D03*
D14*
X109300000Y-144270000D03*
X109300000Y-145540000D03*
X109300000Y-146810000D03*
%TD*%
D15*
%TO.C,J3*%
X137960000Y-130030000D03*
X143040000Y-129014000D03*
X143040000Y-131046000D03*
%TD*%
D16*
%TO.C,C11*%
X125180000Y-144000000D03*
X124220000Y-144000000D03*
%TD*%
%TO.C,C6*%
X117980000Y-141000000D03*
X117020000Y-141000000D03*
%TD*%
%TO.C,C2*%
X135980000Y-135000000D03*
X135020000Y-135000000D03*
%TD*%
%TO.C,C4*%
X135980000Y-138000000D03*
X135020000Y-138000000D03*
%TD*%
D17*
%TO.C,C5*%
X118275000Y-147000000D03*
X116725000Y-147000000D03*
%TD*%
D16*
%TO.C,C3*%
X117980000Y-138000000D03*
X117020000Y-138000000D03*
%TD*%
%TO.C,C8*%
X117980000Y-144000000D03*
X117020000Y-144000000D03*
%TD*%
%TO.C,C14*%
X135980000Y-144000000D03*
X135020000Y-144000000D03*
%TD*%
D18*
%TO.C,J2*%
X129200000Y-142630000D03*
X128100000Y-142630000D03*
X127000000Y-142630000D03*
X125900000Y-142630000D03*
X124800000Y-142630000D03*
X123700000Y-142630000D03*
X122600000Y-142630000D03*
X121500000Y-142630000D03*
X120550000Y-142630000D03*
D19*
X119600000Y-132130000D03*
D20*
X119600000Y-127980000D03*
D21*
X119600000Y-138330000D03*
X130750000Y-142630000D03*
D22*
X133100000Y-127530000D03*
%TD*%
D23*
%TO.C,C10*%
X122050000Y-147000000D03*
X120150000Y-147000000D03*
%TD*%
D16*
%TO.C,C13*%
X132380000Y-144000000D03*
X131420000Y-144000000D03*
%TD*%
%TO.C,C12*%
X128780000Y-144000000D03*
X127820000Y-144000000D03*
%TD*%
%TO.C,C7*%
X135980000Y-141000000D03*
X135020000Y-141000000D03*
%TD*%
%TO.C,C9*%
X121580000Y-144000000D03*
X120620000Y-144000000D03*
%TD*%
D23*
%TO.C,C16*%
X125650000Y-147000000D03*
X123750000Y-147000000D03*
%TD*%
D16*
%TO.C,C15*%
X128780000Y-147000000D03*
X127820000Y-147000000D03*
%TD*%
%TO.C,C1*%
X117980000Y-135000000D03*
X117020000Y-135000000D03*
%TD*%
%LPD*%
M02*
