%TF.GenerationSoftware,KiCad,Pcbnew,10.0.1*%
%TF.CreationDate,2026-07-10T20:05:17-04:00*%
%TF.ProjectId,ipod-sd-udma,69706f64-2d73-4642-9d75-646d612e6b69,rev?*%
%TF.SameCoordinates,Original*%
%TF.FileFunction,Copper,L3,Inr*%
%TF.FilePolarity,Positive*%
%FSLAX46Y46*%
G04 Gerber Fmt 4.6, Leading zero omitted, Abs format (unit mm)*
G04 Created by KiCad (PCBNEW 10.0.1) date 2026-07-10 20:05:17*
%MOMM*%
%LPD*%
G01*
G04 APERTURE LIST*
%TA.AperFunction,ComponentPad*%
%ADD10R,1.000000X1.000000*%
%TD*%
%TA.AperFunction,ComponentPad*%
%ADD11C,1.000000*%
%TD*%
%TA.AperFunction,ViaPad*%
%ADD12C,0.600000*%
%TD*%
%TA.AperFunction,Conductor*%
%ADD13C,0.200000*%
%TD*%
G04 APERTURE END LIST*
D10*
%TO.N,GND*%
%TO.C,J5*%
X109300000Y-143000000D03*
D11*
%TO.N,U_RX*%
X109300000Y-144270000D03*
%TO.N,U_TX*%
X109300000Y-145540000D03*
%TO.N,P3V3*%
X109300000Y-146810000D03*
%TD*%
D12*
%TO.N,GND*%
X111220000Y-157980000D03*
X138427400Y-146250000D03*
X135899300Y-145278300D03*
X132380000Y-144813600D03*
X113760000Y-157995000D03*
X137890000Y-162010000D03*
X114596800Y-140750000D03*
X128780000Y-144859300D03*
X135899300Y-139038200D03*
X114577700Y-145899600D03*
X126566600Y-147916600D03*
X126792300Y-162010000D03*
X122288200Y-157539900D03*
X136705300Y-129798700D03*
X130750000Y-141520700D03*
X129563500Y-147314100D03*
X135900800Y-134109100D03*
X131750000Y-129080300D03*
X127750000Y-129075700D03*
X125190000Y-162010000D03*
X125645700Y-144797400D03*
X134264500Y-127876800D03*
X118275000Y-147981200D03*
X117980000Y-137150500D03*
X122914100Y-128581100D03*
X118577300Y-127876800D03*
X122670800Y-148216200D03*
X121380000Y-157983900D03*
X123137600Y-143734400D03*
X117980000Y-141826200D03*
X120110000Y-162010000D03*
X135903100Y-140029900D03*
X138422000Y-135750000D03*
X123998000Y-157545700D03*
X117980000Y-144814500D03*
X121580000Y-144817100D03*
X131250000Y-150413400D03*
X122337700Y-153216800D03*
X138403500Y-141250000D03*
X119318600Y-133316700D03*
X117980000Y-134159800D03*
X125524700Y-150407800D03*
X114591500Y-135713400D03*
%TO.N,HD8*%
X133750000Y-153341300D03*
%TO.N,HD9*%
X132394300Y-152904000D03*
%TO.N,HD10*%
X130861200Y-153072900D03*
%TO.N,HD4*%
X132175000Y-157780300D03*
X135135600Y-149890400D03*
%TO.N,HD11*%
X129750000Y-153704700D03*
%TO.N,HD12*%
X128861500Y-153140200D03*
%TO.N,HD13*%
X126316600Y-149814500D03*
%TO.N,HD14*%
X126602500Y-153801800D03*
%TO.N,HD0*%
X126622500Y-157780300D03*
X124483400Y-150409900D03*
%TO.N,HD15*%
X125262400Y-152922000D03*
%TO.N,HIORDY*%
X122583800Y-162010000D03*
X121721300Y-153879700D03*
%TO.N,HDA2*%
X119639600Y-153239900D03*
%TO.N,HCS1*%
X116894500Y-153136300D03*
%TO.N,P3V3*%
X112490000Y-162010000D03*
X127197700Y-144622300D03*
X115837500Y-150439400D03*
X127820000Y-147820400D03*
X138408100Y-147153800D03*
X135020000Y-140175000D03*
X120971600Y-147977400D03*
X130750000Y-129072200D03*
X119827200Y-143770200D03*
X117275500Y-138829000D03*
X128250000Y-131587200D03*
X117257600Y-135832000D03*
X122250000Y-129063500D03*
X125900000Y-141507300D03*
X124396600Y-152914300D03*
X123016000Y-145942500D03*
X117078700Y-149306800D03*
X139870600Y-131337300D03*
X132250000Y-150394600D03*
X135020000Y-144812900D03*
X124220000Y-144813700D03*
X112490000Y-157980400D03*
X117091200Y-130265600D03*
X138426700Y-142250000D03*
X135020000Y-138837300D03*
X131420000Y-144812800D03*
X117254600Y-143174800D03*
X135911000Y-151923600D03*
X117083000Y-152329500D03*
X114572800Y-139750000D03*
X114567700Y-146750000D03*
X137162500Y-131589400D03*
X135020000Y-135827200D03*
%TO.N,U_TX*%
X117127700Y-145306000D03*
%TO.N,TCK*%
X124359600Y-131652700D03*
X140213000Y-133390600D03*
%TO.N,TDI*%
X121678700Y-131590000D03*
X141135100Y-131470800D03*
%TO.N,SDD2*%
X128113600Y-138152000D03*
%TO.N,SDD3*%
X126911400Y-138140100D03*
%TO.N,SDCMD*%
X125427800Y-138131700D03*
%TO.N,SDCLK*%
X124446400Y-138158600D03*
%TO.N,SDD0*%
X123560700Y-138164600D03*
%TO.N,SDD1*%
X120475000Y-136869500D03*
%TO.N,SDCD*%
X118243900Y-131617600D03*
%TD*%
%TO.N,U_TX*%
D13*
X117127700Y-145306000D02*
X117068700Y-145247000D01*
X117068700Y-145247000D02*
X109593000Y-145247000D01*
X109593000Y-145247000D02*
X109300000Y-145540000D01*
%TO.N,TCK*%
X126097500Y-133390600D02*
X124359600Y-131652700D01*
X140213000Y-133390600D02*
X126097500Y-133390600D01*
%TO.N,TDI*%
X121678700Y-131590000D02*
X122291500Y-130977200D01*
X140359200Y-132246700D02*
X141135100Y-131470800D01*
X136854200Y-132246700D02*
X140359200Y-132246700D01*
X122291500Y-130977200D02*
X135584700Y-130977200D01*
X135584700Y-130977200D02*
X136854200Y-132246700D01*
%TD*%
%TA.AperFunction,Conductor*%
%TO.N,P3V3*%
G36*
X145242539Y-126750185D02*
G01*
X145288294Y-126802989D01*
X145299500Y-126854500D01*
X145299500Y-162205500D01*
X145279815Y-162272539D01*
X145227011Y-162318294D01*
X145175500Y-162329500D01*
X138535909Y-162329500D01*
X138468870Y-162309815D01*
X138423115Y-162257011D01*
X138413171Y-162187853D01*
X138416131Y-162173419D01*
X138440500Y-162082475D01*
X138440500Y-161937525D01*
X138402984Y-161797515D01*
X138330509Y-161671985D01*
X138228015Y-161569491D01*
X138228013Y-161569490D01*
X138228011Y-161569488D01*
X138102488Y-161497017D01*
X138102489Y-161497017D01*
X138091006Y-161493940D01*
X137962475Y-161459500D01*
X137817525Y-161459500D01*
X137688993Y-161493940D01*
X137677511Y-161497017D01*
X137551988Y-161569488D01*
X137551982Y-161569493D01*
X137449493Y-161671982D01*
X137449488Y-161671988D01*
X137377017Y-161797511D01*
X137377016Y-161797515D01*
X137339500Y-161937525D01*
X137339500Y-162082475D01*
X137363865Y-162173408D01*
X137362203Y-162243256D01*
X137323041Y-162301119D01*
X137258813Y-162328623D01*
X137244091Y-162329500D01*
X127438209Y-162329500D01*
X127371170Y-162309815D01*
X127325415Y-162257011D01*
X127315471Y-162187853D01*
X127318431Y-162173419D01*
X127342800Y-162082475D01*
X127342800Y-161937525D01*
X127305284Y-161797515D01*
X127232809Y-161671985D01*
X127130315Y-161569491D01*
X127130313Y-161569490D01*
X127130311Y-161569488D01*
X127004788Y-161497017D01*
X127004789Y-161497017D01*
X126993306Y-161493940D01*
X126864775Y-161459500D01*
X126719825Y-161459500D01*
X126591293Y-161493940D01*
X126579811Y-161497017D01*
X126454288Y-161569488D01*
X126454282Y-161569493D01*
X126351793Y-161671982D01*
X126351788Y-161671988D01*
X126279317Y-161797511D01*
X126279316Y-161797515D01*
X126241800Y-161937525D01*
X126241800Y-162082475D01*
X126266165Y-162173408D01*
X126264503Y-162243256D01*
X126225341Y-162301119D01*
X126161113Y-162328623D01*
X126146391Y-162329500D01*
X125835909Y-162329500D01*
X125768870Y-162309815D01*
X125723115Y-162257011D01*
X125713171Y-162187853D01*
X125716131Y-162173419D01*
X125740500Y-162082475D01*
X125740500Y-161937525D01*
X125702984Y-161797515D01*
X125630509Y-161671985D01*
X125528015Y-161569491D01*
X125528013Y-161569490D01*
X125528011Y-161569488D01*
X125402488Y-161497017D01*
X125402489Y-161497017D01*
X125391006Y-161493940D01*
X125262475Y-161459500D01*
X125117525Y-161459500D01*
X124988993Y-161493940D01*
X124977511Y-161497017D01*
X124851988Y-161569488D01*
X124851982Y-161569493D01*
X124749493Y-161671982D01*
X124749488Y-161671988D01*
X124677017Y-161797511D01*
X124677016Y-161797515D01*
X124639500Y-161937525D01*
X124639500Y-162082475D01*
X124663865Y-162173408D01*
X124662203Y-162243256D01*
X124623041Y-162301119D01*
X124558813Y-162328623D01*
X124544091Y-162329500D01*
X123229709Y-162329500D01*
X123162670Y-162309815D01*
X123116915Y-162257011D01*
X123106971Y-162187853D01*
X123109931Y-162173419D01*
X123134300Y-162082475D01*
X123134300Y-161937525D01*
X123096784Y-161797515D01*
X123024309Y-161671985D01*
X122921815Y-161569491D01*
X122921813Y-161569490D01*
X122921811Y-161569488D01*
X122796288Y-161497017D01*
X122796289Y-161497017D01*
X122784806Y-161493940D01*
X122656275Y-161459500D01*
X122511325Y-161459500D01*
X122382793Y-161493940D01*
X122371311Y-161497017D01*
X122245788Y-161569488D01*
X122245782Y-161569493D01*
X122143293Y-161671982D01*
X122143288Y-161671988D01*
X122070817Y-161797511D01*
X122070816Y-161797515D01*
X122033300Y-161937525D01*
X122033300Y-162082475D01*
X122057665Y-162173408D01*
X122056003Y-162243256D01*
X122016841Y-162301119D01*
X121952613Y-162328623D01*
X121937891Y-162329500D01*
X120755909Y-162329500D01*
X120688870Y-162309815D01*
X120643115Y-162257011D01*
X120633171Y-162187853D01*
X120636131Y-162173419D01*
X120660500Y-162082475D01*
X120660500Y-161937525D01*
X120622984Y-161797515D01*
X120550509Y-161671985D01*
X120448015Y-161569491D01*
X120448013Y-161569490D01*
X120448011Y-161569488D01*
X120322488Y-161497017D01*
X120322489Y-161497017D01*
X120311006Y-161493940D01*
X120182475Y-161459500D01*
X120037525Y-161459500D01*
X119908993Y-161493940D01*
X119897511Y-161497017D01*
X119771988Y-161569488D01*
X119771982Y-161569493D01*
X119669493Y-161671982D01*
X119669488Y-161671988D01*
X119597017Y-161797511D01*
X119597016Y-161797515D01*
X119559500Y-161937525D01*
X119559500Y-162082475D01*
X119583865Y-162173408D01*
X119582203Y-162243256D01*
X119543041Y-162301119D01*
X119478813Y-162328623D01*
X119464091Y-162329500D01*
X107824500Y-162329500D01*
X107757461Y-162309815D01*
X107711706Y-162257011D01*
X107700500Y-162205500D01*
X107700500Y-157907525D01*
X110669500Y-157907525D01*
X110669500Y-158052475D01*
X110687141Y-158118311D01*
X110707017Y-158192488D01*
X110779488Y-158318011D01*
X110779490Y-158318013D01*
X110779491Y-158318015D01*
X110881985Y-158420509D01*
X110881986Y-158420510D01*
X110881988Y-158420511D01*
X111007511Y-158492982D01*
X111007512Y-158492982D01*
X111007515Y-158492984D01*
X111147525Y-158530500D01*
X111147528Y-158530500D01*
X111292472Y-158530500D01*
X111292475Y-158530500D01*
X111432485Y-158492984D01*
X111558015Y-158420509D01*
X111660509Y-158318015D01*
X111732984Y-158192485D01*
X111770500Y-158052475D01*
X111770500Y-157922525D01*
X113209500Y-157922525D01*
X113209500Y-158067475D01*
X113227773Y-158135669D01*
X113247017Y-158207488D01*
X113319488Y-158333011D01*
X113319490Y-158333013D01*
X113319491Y-158333015D01*
X113421985Y-158435509D01*
X113421986Y-158435510D01*
X113421988Y-158435511D01*
X113547511Y-158507982D01*
X113547512Y-158507982D01*
X113547515Y-158507984D01*
X113687525Y-158545500D01*
X113687528Y-158545500D01*
X113832472Y-158545500D01*
X113832475Y-158545500D01*
X113972485Y-158507984D01*
X114098015Y-158435509D01*
X114200509Y-158333015D01*
X114272984Y-158207485D01*
X114310500Y-158067475D01*
X114310500Y-157922525D01*
X114307526Y-157911425D01*
X120829500Y-157911425D01*
X120829500Y-158056375D01*
X120846096Y-158118311D01*
X120867017Y-158196388D01*
X120939488Y-158321911D01*
X120939490Y-158321913D01*
X120939491Y-158321915D01*
X121041985Y-158424409D01*
X121041986Y-158424410D01*
X121041988Y-158424411D01*
X121167511Y-158496882D01*
X121167512Y-158496882D01*
X121167515Y-158496884D01*
X121307525Y-158534400D01*
X121307528Y-158534400D01*
X121452472Y-158534400D01*
X121452475Y-158534400D01*
X121592485Y-158496884D01*
X121718015Y-158424409D01*
X121820509Y-158321915D01*
X121892984Y-158196385D01*
X121909253Y-158135666D01*
X121945617Y-158076009D01*
X122008463Y-158045479D01*
X122067490Y-158052178D01*
X122067865Y-158050780D01*
X122075713Y-158052882D01*
X122075715Y-158052884D01*
X122215725Y-158090400D01*
X122215728Y-158090400D01*
X122360672Y-158090400D01*
X122360675Y-158090400D01*
X122500685Y-158052884D01*
X122626215Y-157980409D01*
X122728709Y-157877915D01*
X122801184Y-157752385D01*
X122838700Y-157612375D01*
X122838700Y-157473225D01*
X123447500Y-157473225D01*
X123447500Y-157618175D01*
X123483462Y-157752385D01*
X123485017Y-157758188D01*
X123557488Y-157883711D01*
X123557490Y-157883713D01*
X123557491Y-157883715D01*
X123659985Y-157986209D01*
X123659986Y-157986210D01*
X123659988Y-157986211D01*
X123785511Y-158058682D01*
X123785512Y-158058682D01*
X123785515Y-158058684D01*
X123925525Y-158096200D01*
X123925528Y-158096200D01*
X124070472Y-158096200D01*
X124070475Y-158096200D01*
X124210485Y-158058684D01*
X124336015Y-157986209D01*
X124438509Y-157883715D01*
X124510984Y-157758185D01*
X124524478Y-157707825D01*
X126072000Y-157707825D01*
X126072000Y-157852775D01*
X126109516Y-157992785D01*
X126109517Y-157992788D01*
X126181988Y-158118311D01*
X126181990Y-158118313D01*
X126181991Y-158118315D01*
X126284485Y-158220809D01*
X126284486Y-158220810D01*
X126284488Y-158220811D01*
X126410011Y-158293282D01*
X126410012Y-158293282D01*
X126410015Y-158293284D01*
X126550025Y-158330800D01*
X126550028Y-158330800D01*
X126694972Y-158330800D01*
X126694975Y-158330800D01*
X126834985Y-158293284D01*
X126960515Y-158220809D01*
X127063009Y-158118315D01*
X127135484Y-157992785D01*
X127173000Y-157852775D01*
X127173000Y-157707825D01*
X131624500Y-157707825D01*
X131624500Y-157852775D01*
X131662016Y-157992785D01*
X131662017Y-157992788D01*
X131734488Y-158118311D01*
X131734490Y-158118313D01*
X131734491Y-158118315D01*
X131836985Y-158220809D01*
X131836986Y-158220810D01*
X131836988Y-158220811D01*
X131962511Y-158293282D01*
X131962512Y-158293282D01*
X131962515Y-158293284D01*
X132102525Y-158330800D01*
X132102528Y-158330800D01*
X132247472Y-158330800D01*
X132247475Y-158330800D01*
X132387485Y-158293284D01*
X132513015Y-158220809D01*
X132615509Y-158118315D01*
X132687984Y-157992785D01*
X132725500Y-157852775D01*
X132725500Y-157707825D01*
X132687984Y-157567815D01*
X132680291Y-157554491D01*
X132615511Y-157442288D01*
X132615506Y-157442282D01*
X132513017Y-157339793D01*
X132513011Y-157339788D01*
X132387488Y-157267317D01*
X132387489Y-157267317D01*
X132376006Y-157264240D01*
X132247475Y-157229800D01*
X132102525Y-157229800D01*
X131973993Y-157264240D01*
X131962511Y-157267317D01*
X131836988Y-157339788D01*
X131836982Y-157339793D01*
X131734493Y-157442282D01*
X131734488Y-157442288D01*
X131662017Y-157567811D01*
X131662016Y-157567815D01*
X131624500Y-157707825D01*
X127173000Y-157707825D01*
X127135484Y-157567815D01*
X127127791Y-157554491D01*
X127063011Y-157442288D01*
X127063006Y-157442282D01*
X126960517Y-157339793D01*
X126960511Y-157339788D01*
X126834988Y-157267317D01*
X126834989Y-157267317D01*
X126823506Y-157264240D01*
X126694975Y-157229800D01*
X126550025Y-157229800D01*
X126421493Y-157264240D01*
X126410011Y-157267317D01*
X126284488Y-157339788D01*
X126284482Y-157339793D01*
X126181993Y-157442282D01*
X126181988Y-157442288D01*
X126109517Y-157567811D01*
X126109516Y-157567815D01*
X126072000Y-157707825D01*
X124524478Y-157707825D01*
X124548500Y-157618175D01*
X124548500Y-157473225D01*
X124510984Y-157333215D01*
X124507635Y-157327415D01*
X124438511Y-157207688D01*
X124438506Y-157207682D01*
X124336017Y-157105193D01*
X124336011Y-157105188D01*
X124210488Y-157032717D01*
X124210489Y-157032717D01*
X124188839Y-157026916D01*
X124070475Y-156995200D01*
X123925525Y-156995200D01*
X123807161Y-157026916D01*
X123785511Y-157032717D01*
X123659988Y-157105188D01*
X123659982Y-157105193D01*
X123557493Y-157207682D01*
X123557488Y-157207688D01*
X123485017Y-157333211D01*
X123485016Y-157333215D01*
X123447500Y-157473225D01*
X122838700Y-157473225D01*
X122838700Y-157467425D01*
X122801184Y-157327415D01*
X122766486Y-157267317D01*
X122728711Y-157201888D01*
X122728706Y-157201882D01*
X122626217Y-157099393D01*
X122626211Y-157099388D01*
X122500688Y-157026917D01*
X122500689Y-157026917D01*
X122489206Y-157023840D01*
X122360675Y-156989400D01*
X122215725Y-156989400D01*
X122087193Y-157023840D01*
X122075711Y-157026917D01*
X121950188Y-157099388D01*
X121950182Y-157099393D01*
X121847693Y-157201882D01*
X121847688Y-157201888D01*
X121775217Y-157327411D01*
X121775215Y-157327416D01*
X121758946Y-157388132D01*
X121722581Y-157447792D01*
X121659734Y-157478320D01*
X121600709Y-157471622D01*
X121600335Y-157473020D01*
X121592486Y-157470917D01*
X121592485Y-157470916D01*
X121452475Y-157433400D01*
X121307525Y-157433400D01*
X121182070Y-157467016D01*
X121167511Y-157470917D01*
X121041988Y-157543388D01*
X121041982Y-157543393D01*
X120939493Y-157645882D01*
X120939488Y-157645888D01*
X120867017Y-157771411D01*
X120867016Y-157771415D01*
X120829500Y-157911425D01*
X114307526Y-157911425D01*
X114272984Y-157782515D01*
X114266575Y-157771415D01*
X114200511Y-157656988D01*
X114200506Y-157656982D01*
X114098017Y-157554493D01*
X114098011Y-157554488D01*
X113972488Y-157482017D01*
X113972489Y-157482017D01*
X113939684Y-157473227D01*
X113832475Y-157444500D01*
X113687525Y-157444500D01*
X113580316Y-157473227D01*
X113547511Y-157482017D01*
X113421988Y-157554488D01*
X113421982Y-157554493D01*
X113319493Y-157656982D01*
X113319488Y-157656988D01*
X113247017Y-157782511D01*
X113247016Y-157782515D01*
X113209500Y-157922525D01*
X111770500Y-157922525D01*
X111770500Y-157907525D01*
X111732984Y-157767515D01*
X111727597Y-157758185D01*
X111660511Y-157641988D01*
X111660506Y-157641982D01*
X111558017Y-157539493D01*
X111558011Y-157539488D01*
X111432488Y-157467017D01*
X111432489Y-157467017D01*
X111421006Y-157463940D01*
X111292475Y-157429500D01*
X111147525Y-157429500D01*
X111018993Y-157463940D01*
X111007511Y-157467017D01*
X110881988Y-157539488D01*
X110881982Y-157539493D01*
X110779493Y-157641982D01*
X110779488Y-157641988D01*
X110707017Y-157767511D01*
X110707016Y-157767515D01*
X110669500Y-157907525D01*
X107700500Y-157907525D01*
X107700500Y-153807225D01*
X121170800Y-153807225D01*
X121170800Y-153952175D01*
X121195061Y-154042717D01*
X121208317Y-154092188D01*
X121280788Y-154217711D01*
X121280790Y-154217713D01*
X121280791Y-154217715D01*
X121383285Y-154320209D01*
X121383286Y-154320210D01*
X121383288Y-154320211D01*
X121508811Y-154392682D01*
X121508812Y-154392682D01*
X121508815Y-154392684D01*
X121648825Y-154430200D01*
X121648828Y-154430200D01*
X121793772Y-154430200D01*
X121793775Y-154430200D01*
X121933785Y-154392684D01*
X122059315Y-154320209D01*
X122161809Y-154217715D01*
X122234284Y-154092185D01*
X122271800Y-153952175D01*
X122271800Y-153891300D01*
X122291485Y-153824261D01*
X122344289Y-153778506D01*
X122395800Y-153767300D01*
X122410172Y-153767300D01*
X122410175Y-153767300D01*
X122550185Y-153729784D01*
X122550980Y-153729325D01*
X126052000Y-153729325D01*
X126052000Y-153874275D01*
X126089516Y-154014285D01*
X126089517Y-154014288D01*
X126161988Y-154139811D01*
X126161990Y-154139813D01*
X126161991Y-154139815D01*
X126264485Y-154242309D01*
X126264486Y-154242310D01*
X126264488Y-154242311D01*
X126390011Y-154314782D01*
X126390012Y-154314782D01*
X126390015Y-154314784D01*
X126530025Y-154352300D01*
X126530028Y-154352300D01*
X126674972Y-154352300D01*
X126674975Y-154352300D01*
X126814985Y-154314784D01*
X126940515Y-154242309D01*
X127043009Y-154139815D01*
X127115484Y-154014285D01*
X127153000Y-153874275D01*
X127153000Y-153729325D01*
X127115484Y-153589315D01*
X127110516Y-153580711D01*
X127043011Y-153463788D01*
X127043006Y-153463782D01*
X126940517Y-153361293D01*
X126940511Y-153361288D01*
X126814988Y-153288817D01*
X126814989Y-153288817D01*
X126799415Y-153284644D01*
X126674975Y-153251300D01*
X126530025Y-153251300D01*
X126405585Y-153284644D01*
X126390011Y-153288817D01*
X126264488Y-153361288D01*
X126264482Y-153361293D01*
X126161993Y-153463782D01*
X126161988Y-153463788D01*
X126089517Y-153589311D01*
X126089516Y-153589315D01*
X126052000Y-153729325D01*
X122550980Y-153729325D01*
X122675715Y-153657309D01*
X122778209Y-153554815D01*
X122850684Y-153429285D01*
X122888200Y-153289275D01*
X122888200Y-153144325D01*
X122850684Y-153004315D01*
X122778209Y-152878785D01*
X122748949Y-152849525D01*
X124711900Y-152849525D01*
X124711900Y-152994475D01*
X124744593Y-153116485D01*
X124749417Y-153134488D01*
X124821888Y-153260011D01*
X124821890Y-153260013D01*
X124821891Y-153260015D01*
X124924385Y-153362509D01*
X124924386Y-153362510D01*
X124924388Y-153362511D01*
X125049911Y-153434982D01*
X125049912Y-153434982D01*
X125049915Y-153434984D01*
X125189925Y-153472500D01*
X125189928Y-153472500D01*
X125334872Y-153472500D01*
X125334875Y-153472500D01*
X125474885Y-153434984D01*
X125600415Y-153362509D01*
X125702909Y-153260015D01*
X125775384Y-153134485D01*
X125793272Y-153067725D01*
X128311000Y-153067725D01*
X128311000Y-153212675D01*
X128346325Y-153344509D01*
X128348517Y-153352688D01*
X128420988Y-153478211D01*
X128420990Y-153478213D01*
X128420991Y-153478215D01*
X128523485Y-153580709D01*
X128523486Y-153580710D01*
X128523488Y-153580711D01*
X128649011Y-153653182D01*
X128649012Y-153653182D01*
X128649015Y-153653184D01*
X128789025Y-153690700D01*
X128789028Y-153690700D01*
X128933972Y-153690700D01*
X128933975Y-153690700D01*
X129043408Y-153661377D01*
X129113256Y-153663040D01*
X129171119Y-153702202D01*
X129198623Y-153766430D01*
X129199067Y-153773885D01*
X129199499Y-153777171D01*
X129199500Y-153777174D01*
X129199500Y-153777175D01*
X129225517Y-153874272D01*
X129237017Y-153917188D01*
X129309488Y-154042711D01*
X129309490Y-154042713D01*
X129309491Y-154042715D01*
X129411985Y-154145209D01*
X129411986Y-154145210D01*
X129411988Y-154145211D01*
X129537511Y-154217682D01*
X129537512Y-154217682D01*
X129537515Y-154217684D01*
X129677525Y-154255200D01*
X129677528Y-154255200D01*
X129822472Y-154255200D01*
X129822475Y-154255200D01*
X129962485Y-154217684D01*
X130088015Y-154145209D01*
X130190509Y-154042715D01*
X130262984Y-153917185D01*
X130300500Y-153777175D01*
X130300500Y-153632225D01*
X130295276Y-153612729D01*
X130296937Y-153542882D01*
X130336098Y-153485019D01*
X130400326Y-153457513D01*
X130469229Y-153469098D01*
X130502731Y-153492955D01*
X130523185Y-153513409D01*
X130523186Y-153513410D01*
X130523188Y-153513411D01*
X130648711Y-153585882D01*
X130648712Y-153585882D01*
X130648715Y-153585884D01*
X130788725Y-153623400D01*
X130788728Y-153623400D01*
X130933672Y-153623400D01*
X130933675Y-153623400D01*
X131073685Y-153585884D01*
X131199215Y-153513409D01*
X131301709Y-153410915D01*
X131374184Y-153285385D01*
X131411700Y-153145375D01*
X131411700Y-153000425D01*
X131374184Y-152860415D01*
X131357504Y-152831525D01*
X131843800Y-152831525D01*
X131843800Y-152976475D01*
X131881316Y-153116485D01*
X131881317Y-153116488D01*
X131953788Y-153242011D01*
X131953790Y-153242013D01*
X131953791Y-153242015D01*
X132056285Y-153344509D01*
X132056286Y-153344510D01*
X132056288Y-153344511D01*
X132181811Y-153416982D01*
X132181812Y-153416982D01*
X132181815Y-153416984D01*
X132321825Y-153454500D01*
X132321828Y-153454500D01*
X132466772Y-153454500D01*
X132466775Y-153454500D01*
X132606785Y-153416984D01*
X132732315Y-153344509D01*
X132807999Y-153268825D01*
X133199500Y-153268825D01*
X133199500Y-153413775D01*
X133226198Y-153513411D01*
X133237017Y-153553788D01*
X133309488Y-153679311D01*
X133309490Y-153679313D01*
X133309491Y-153679315D01*
X133411985Y-153781809D01*
X133411986Y-153781810D01*
X133411988Y-153781811D01*
X133537511Y-153854282D01*
X133537512Y-153854282D01*
X133537515Y-153854284D01*
X133677525Y-153891800D01*
X133677528Y-153891800D01*
X133822472Y-153891800D01*
X133822475Y-153891800D01*
X133962485Y-153854284D01*
X134088015Y-153781809D01*
X134190509Y-153679315D01*
X134262984Y-153553785D01*
X134300500Y-153413775D01*
X134300500Y-153268825D01*
X134262984Y-153128815D01*
X134255865Y-153116485D01*
X134190511Y-153003288D01*
X134190506Y-153003282D01*
X134088017Y-152900793D01*
X134088011Y-152900788D01*
X133962488Y-152828317D01*
X133962489Y-152828317D01*
X133951006Y-152825240D01*
X133822475Y-152790800D01*
X133677525Y-152790800D01*
X133548993Y-152825240D01*
X133537511Y-152828317D01*
X133411988Y-152900788D01*
X133411982Y-152900793D01*
X133309493Y-153003282D01*
X133309488Y-153003288D01*
X133237017Y-153128811D01*
X133237016Y-153128815D01*
X133199500Y-153268825D01*
X132807999Y-153268825D01*
X132834809Y-153242015D01*
X132907284Y-153116485D01*
X132944800Y-152976475D01*
X132944800Y-152831525D01*
X132907284Y-152691515D01*
X132870161Y-152627217D01*
X132834811Y-152565988D01*
X132834806Y-152565982D01*
X132732317Y-152463493D01*
X132732311Y-152463488D01*
X132606788Y-152391017D01*
X132606789Y-152391017D01*
X132595306Y-152387940D01*
X132466775Y-152353500D01*
X132321825Y-152353500D01*
X132193293Y-152387940D01*
X132181811Y-152391017D01*
X132056288Y-152463488D01*
X132056282Y-152463493D01*
X131953793Y-152565982D01*
X131953788Y-152565988D01*
X131881317Y-152691511D01*
X131881316Y-152691515D01*
X131843800Y-152831525D01*
X131357504Y-152831525D01*
X131301709Y-152734885D01*
X131199215Y-152632391D01*
X131199213Y-152632390D01*
X131199211Y-152632388D01*
X131073688Y-152559917D01*
X131073689Y-152559917D01*
X131062206Y-152556840D01*
X130933675Y-152522400D01*
X130788725Y-152522400D01*
X130660193Y-152556840D01*
X130648711Y-152559917D01*
X130523188Y-152632388D01*
X130523182Y-152632393D01*
X130420693Y-152734882D01*
X130420688Y-152734888D01*
X130348217Y-152860411D01*
X130348216Y-152860415D01*
X130310700Y-153000425D01*
X130310700Y-153000427D01*
X130310700Y-153145374D01*
X130315924Y-153164870D01*
X130314261Y-153234720D01*
X130275098Y-153292582D01*
X130210870Y-153320086D01*
X130141968Y-153308499D01*
X130108468Y-153284644D01*
X130088017Y-153264193D01*
X130088011Y-153264188D01*
X129962488Y-153191717D01*
X129962489Y-153191717D01*
X129951006Y-153188640D01*
X129822475Y-153154200D01*
X129677525Y-153154200D01*
X129568093Y-153183522D01*
X129498243Y-153181859D01*
X129440381Y-153142696D01*
X129412877Y-153078468D01*
X129412433Y-153071015D01*
X129412000Y-153067728D01*
X129412000Y-153067727D01*
X129412000Y-153067725D01*
X129374484Y-152927715D01*
X129372232Y-152923815D01*
X129302011Y-152802188D01*
X129302006Y-152802182D01*
X129199517Y-152699693D01*
X129199511Y-152699688D01*
X129073988Y-152627217D01*
X129073989Y-152627217D01*
X129059430Y-152623316D01*
X128933975Y-152589700D01*
X128789025Y-152589700D01*
X128663570Y-152623316D01*
X128649011Y-152627217D01*
X128523488Y-152699688D01*
X128523482Y-152699693D01*
X128420993Y-152802182D01*
X128420988Y-152802188D01*
X128348517Y-152927711D01*
X128348516Y-152927715D01*
X128311000Y-153067725D01*
X125793272Y-153067725D01*
X125812900Y-152994475D01*
X125812900Y-152849525D01*
X125775384Y-152709515D01*
X125772094Y-152703817D01*
X125702911Y-152583988D01*
X125702906Y-152583982D01*
X125600417Y-152481493D01*
X125600411Y-152481488D01*
X125474888Y-152409017D01*
X125474889Y-152409017D01*
X125463406Y-152405940D01*
X125334875Y-152371500D01*
X125189925Y-152371500D01*
X125061393Y-152405940D01*
X125049911Y-152409017D01*
X124924388Y-152481488D01*
X124924382Y-152481493D01*
X124821893Y-152583982D01*
X124821888Y-152583988D01*
X124749417Y-152709511D01*
X124749416Y-152709515D01*
X124711900Y-152849525D01*
X122748949Y-152849525D01*
X122675715Y-152776291D01*
X122675713Y-152776290D01*
X122675711Y-152776288D01*
X122550188Y-152703817D01*
X122550189Y-152703817D01*
X122520243Y-152695793D01*
X122410175Y-152666300D01*
X122265225Y-152666300D01*
X122155157Y-152695793D01*
X122125211Y-152703817D01*
X121999688Y-152776288D01*
X121999682Y-152776293D01*
X121897193Y-152878782D01*
X121897188Y-152878788D01*
X121824717Y-153004311D01*
X121824716Y-153004315D01*
X121787200Y-153144325D01*
X121787200Y-153144327D01*
X121787200Y-153205200D01*
X121767515Y-153272239D01*
X121714711Y-153317994D01*
X121663200Y-153329200D01*
X121648825Y-153329200D01*
X121529061Y-153361291D01*
X121508811Y-153366717D01*
X121383288Y-153439188D01*
X121383282Y-153439193D01*
X121280793Y-153541682D01*
X121280788Y-153541688D01*
X121208317Y-153667211D01*
X121208316Y-153667215D01*
X121170800Y-153807225D01*
X107700500Y-153807225D01*
X107700500Y-153063825D01*
X116344000Y-153063825D01*
X116344000Y-153208775D01*
X116380370Y-153344509D01*
X116381517Y-153348788D01*
X116453988Y-153474311D01*
X116453990Y-153474313D01*
X116453991Y-153474315D01*
X116556485Y-153576809D01*
X116556486Y-153576810D01*
X116556488Y-153576811D01*
X116682011Y-153649282D01*
X116682012Y-153649282D01*
X116682015Y-153649284D01*
X116822025Y-153686800D01*
X116822028Y-153686800D01*
X116966972Y-153686800D01*
X116966975Y-153686800D01*
X117106985Y-153649284D01*
X117232515Y-153576809D01*
X117335009Y-153474315D01*
X117407484Y-153348785D01*
X117445000Y-153208775D01*
X117445000Y-153167425D01*
X119089100Y-153167425D01*
X119089100Y-153312375D01*
X119123080Y-153439188D01*
X119126617Y-153452388D01*
X119199088Y-153577911D01*
X119199090Y-153577913D01*
X119199091Y-153577915D01*
X119301585Y-153680409D01*
X119301586Y-153680410D01*
X119301588Y-153680411D01*
X119427111Y-153752882D01*
X119427112Y-153752882D01*
X119427115Y-153752884D01*
X119567125Y-153790400D01*
X119567128Y-153790400D01*
X119712072Y-153790400D01*
X119712075Y-153790400D01*
X119852085Y-153752884D01*
X119939869Y-153702202D01*
X119958040Y-153691711D01*
X119958041Y-153691710D01*
X119977615Y-153680409D01*
X120080109Y-153577915D01*
X120152584Y-153452385D01*
X120190100Y-153312375D01*
X120190100Y-153167425D01*
X120152584Y-153027415D01*
X120138654Y-153003288D01*
X120080111Y-152901888D01*
X120080106Y-152901882D01*
X119977617Y-152799393D01*
X119977611Y-152799388D01*
X119852088Y-152726917D01*
X119852089Y-152726917D01*
X119840606Y-152723840D01*
X119712075Y-152689400D01*
X119567125Y-152689400D01*
X119438593Y-152723840D01*
X119427111Y-152726917D01*
X119301588Y-152799388D01*
X119301582Y-152799393D01*
X119199093Y-152901882D01*
X119199088Y-152901888D01*
X119126617Y-153027411D01*
X119126616Y-153027415D01*
X119089100Y-153167425D01*
X117445000Y-153167425D01*
X117445000Y-153063825D01*
X117407484Y-152923815D01*
X117394824Y-152901888D01*
X117335011Y-152798288D01*
X117335006Y-152798282D01*
X117232517Y-152695793D01*
X117232511Y-152695788D01*
X117106988Y-152623317D01*
X117106989Y-152623317D01*
X117095506Y-152620240D01*
X116966975Y-152585800D01*
X116822025Y-152585800D01*
X116693493Y-152620240D01*
X116682011Y-152623317D01*
X116556488Y-152695788D01*
X116556482Y-152695793D01*
X116453993Y-152798282D01*
X116453988Y-152798288D01*
X116381517Y-152923811D01*
X116381516Y-152923815D01*
X116344000Y-153063825D01*
X107700500Y-153063825D01*
X107700500Y-150337425D01*
X123932900Y-150337425D01*
X123932900Y-150482375D01*
X123969854Y-150620288D01*
X123970417Y-150622388D01*
X124042888Y-150747911D01*
X124042890Y-150747913D01*
X124042891Y-150747915D01*
X124145385Y-150850409D01*
X124145386Y-150850410D01*
X124145388Y-150850411D01*
X124270911Y-150922882D01*
X124270912Y-150922882D01*
X124270915Y-150922884D01*
X124410925Y-150960400D01*
X124410928Y-150960400D01*
X124555872Y-150960400D01*
X124555875Y-150960400D01*
X124695885Y-150922884D01*
X124821415Y-150850409D01*
X124917419Y-150754405D01*
X124978742Y-150720920D01*
X125048434Y-150725904D01*
X125092781Y-150754405D01*
X125186685Y-150848309D01*
X125186686Y-150848310D01*
X125186688Y-150848311D01*
X125312211Y-150920782D01*
X125312212Y-150920782D01*
X125312215Y-150920784D01*
X125452225Y-150958300D01*
X125452228Y-150958300D01*
X125597172Y-150958300D01*
X125597175Y-150958300D01*
X125737185Y-150920784D01*
X125862715Y-150848309D01*
X125965209Y-150745815D01*
X126037684Y-150620285D01*
X126075200Y-150480275D01*
X126075200Y-150480271D01*
X126076261Y-150472215D01*
X126077818Y-150472420D01*
X126094885Y-150414297D01*
X126147689Y-150368542D01*
X126216847Y-150358598D01*
X126231292Y-150361561D01*
X126244125Y-150365000D01*
X126244127Y-150365000D01*
X126389072Y-150365000D01*
X126389075Y-150365000D01*
X126478923Y-150340925D01*
X130699500Y-150340925D01*
X130699500Y-150485875D01*
X130735516Y-150620288D01*
X130737017Y-150625888D01*
X130809488Y-150751411D01*
X130809490Y-150751413D01*
X130809491Y-150751415D01*
X130911985Y-150853909D01*
X130911986Y-150853910D01*
X130911988Y-150853911D01*
X131037511Y-150926382D01*
X131037512Y-150926382D01*
X131037515Y-150926384D01*
X131177525Y-150963900D01*
X131177528Y-150963900D01*
X131322472Y-150963900D01*
X131322475Y-150963900D01*
X131462485Y-150926384D01*
X131588015Y-150853909D01*
X131690509Y-150751415D01*
X131762984Y-150625885D01*
X131800500Y-150485875D01*
X131800500Y-150340925D01*
X131762984Y-150200915D01*
X131760963Y-150197415D01*
X131690511Y-150075388D01*
X131690506Y-150075382D01*
X131588017Y-149972893D01*
X131588015Y-149972891D01*
X131462485Y-149900416D01*
X131322475Y-149862900D01*
X131177525Y-149862900D01*
X131058414Y-149894816D01*
X131037511Y-149900417D01*
X130911988Y-149972888D01*
X130911982Y-149972893D01*
X130809493Y-150075382D01*
X130809488Y-150075388D01*
X130737017Y-150200911D01*
X130737016Y-150200915D01*
X130699500Y-150340925D01*
X126478923Y-150340925D01*
X126529085Y-150327484D01*
X126654615Y-150255009D01*
X126757109Y-150152515D01*
X126829584Y-150026985D01*
X126867100Y-149886975D01*
X126867100Y-149817925D01*
X134585100Y-149817925D01*
X134585100Y-149962875D01*
X134615248Y-150075388D01*
X134622617Y-150102888D01*
X134695088Y-150228411D01*
X134695090Y-150228413D01*
X134695091Y-150228415D01*
X134797585Y-150330909D01*
X134797586Y-150330910D01*
X134797588Y-150330911D01*
X134923111Y-150403382D01*
X134923112Y-150403382D01*
X134923115Y-150403384D01*
X135063125Y-150440900D01*
X135063128Y-150440900D01*
X135208072Y-150440900D01*
X135208075Y-150440900D01*
X135348085Y-150403384D01*
X135473615Y-150330909D01*
X135576109Y-150228415D01*
X135648584Y-150102885D01*
X135686100Y-149962875D01*
X135686100Y-149817925D01*
X135648584Y-149677915D01*
X135576109Y-149552385D01*
X135473615Y-149449891D01*
X135473613Y-149449890D01*
X135473611Y-149449888D01*
X135348088Y-149377417D01*
X135348089Y-149377417D01*
X135335292Y-149373988D01*
X135208075Y-149339900D01*
X135063125Y-149339900D01*
X134935908Y-149373988D01*
X134923111Y-149377417D01*
X134797588Y-149449888D01*
X134797582Y-149449893D01*
X134695093Y-149552382D01*
X134695088Y-149552388D01*
X134622617Y-149677911D01*
X134622616Y-149677915D01*
X134585100Y-149817925D01*
X126867100Y-149817925D01*
X126867100Y-149742025D01*
X126829584Y-149602015D01*
X126800928Y-149552382D01*
X126757111Y-149476488D01*
X126757106Y-149476482D01*
X126654617Y-149373993D01*
X126654611Y-149373988D01*
X126529088Y-149301517D01*
X126529089Y-149301517D01*
X126517606Y-149298440D01*
X126389075Y-149264000D01*
X126244125Y-149264000D01*
X126115593Y-149298440D01*
X126104111Y-149301517D01*
X125978588Y-149373988D01*
X125978582Y-149373993D01*
X125876093Y-149476482D01*
X125876088Y-149476488D01*
X125803617Y-149602011D01*
X125766099Y-149742028D01*
X125765039Y-149750085D01*
X125763481Y-149749879D01*
X125746415Y-149808002D01*
X125693611Y-149853757D01*
X125624453Y-149863701D01*
X125610010Y-149860739D01*
X125605012Y-149859400D01*
X125597175Y-149857300D01*
X125452225Y-149857300D01*
X125341489Y-149886972D01*
X125312211Y-149894817D01*
X125186688Y-149967288D01*
X125186682Y-149967293D01*
X125090681Y-150063295D01*
X125029358Y-150096780D01*
X124959666Y-150091796D01*
X124915319Y-150063295D01*
X124821417Y-149969393D01*
X124821411Y-149969388D01*
X124695888Y-149896917D01*
X124695889Y-149896917D01*
X124658785Y-149886975D01*
X124555875Y-149859400D01*
X124410925Y-149859400D01*
X124308015Y-149886975D01*
X124270911Y-149896917D01*
X124145388Y-149969388D01*
X124145382Y-149969393D01*
X124042893Y-150071882D01*
X124042888Y-150071888D01*
X123970417Y-150197411D01*
X123970416Y-150197415D01*
X123932900Y-150337425D01*
X107700500Y-150337425D01*
X107700500Y-147908725D01*
X117724500Y-147908725D01*
X117724500Y-148053675D01*
X117748630Y-148143727D01*
X117762017Y-148193688D01*
X117834488Y-148319211D01*
X117834490Y-148319213D01*
X117834491Y-148319215D01*
X117936985Y-148421709D01*
X117936986Y-148421710D01*
X117936988Y-148421711D01*
X118062511Y-148494182D01*
X118062512Y-148494182D01*
X118062515Y-148494184D01*
X118202525Y-148531700D01*
X118202528Y-148531700D01*
X118347472Y-148531700D01*
X118347475Y-148531700D01*
X118487485Y-148494184D01*
X118613015Y-148421709D01*
X118715509Y-148319215D01*
X118787984Y-148193685D01*
X118801371Y-148143725D01*
X122120300Y-148143725D01*
X122120300Y-148288675D01*
X122157816Y-148428685D01*
X122157817Y-148428688D01*
X122230288Y-148554211D01*
X122230290Y-148554213D01*
X122230291Y-148554215D01*
X122332785Y-148656709D01*
X122332786Y-148656710D01*
X122332788Y-148656711D01*
X122458311Y-148729182D01*
X122458312Y-148729182D01*
X122458315Y-148729184D01*
X122598325Y-148766700D01*
X122598328Y-148766700D01*
X122743272Y-148766700D01*
X122743275Y-148766700D01*
X122883285Y-148729184D01*
X123008815Y-148656709D01*
X123111309Y-148554215D01*
X123183784Y-148428685D01*
X123221300Y-148288675D01*
X123221300Y-148143725D01*
X123183784Y-148003715D01*
X123111309Y-147878185D01*
X123077249Y-147844125D01*
X126016100Y-147844125D01*
X126016100Y-147989075D01*
X126046762Y-148103504D01*
X126053617Y-148129088D01*
X126126088Y-148254611D01*
X126126090Y-148254613D01*
X126126091Y-148254615D01*
X126228585Y-148357109D01*
X126228586Y-148357110D01*
X126228588Y-148357111D01*
X126354111Y-148429582D01*
X126354112Y-148429582D01*
X126354115Y-148429584D01*
X126494125Y-148467100D01*
X126494128Y-148467100D01*
X126639072Y-148467100D01*
X126639075Y-148467100D01*
X126779085Y-148429584D01*
X126904615Y-148357109D01*
X127007109Y-148254615D01*
X127079584Y-148129085D01*
X127117100Y-147989075D01*
X127117100Y-147844125D01*
X127079584Y-147704115D01*
X127075008Y-147696190D01*
X127007111Y-147578588D01*
X127007106Y-147578582D01*
X126904617Y-147476093D01*
X126904611Y-147476088D01*
X126779088Y-147403617D01*
X126779089Y-147403617D01*
X126767606Y-147400540D01*
X126639075Y-147366100D01*
X126494125Y-147366100D01*
X126365593Y-147400540D01*
X126354111Y-147403617D01*
X126228588Y-147476088D01*
X126228582Y-147476093D01*
X126126093Y-147578582D01*
X126126088Y-147578588D01*
X126053617Y-147704111D01*
X126053616Y-147704115D01*
X126016100Y-147844125D01*
X123077249Y-147844125D01*
X123008815Y-147775691D01*
X123008813Y-147775690D01*
X123008811Y-147775688D01*
X122883288Y-147703217D01*
X122883289Y-147703217D01*
X122857064Y-147696190D01*
X122743275Y-147665700D01*
X122598325Y-147665700D01*
X122484536Y-147696190D01*
X122458311Y-147703217D01*
X122332788Y-147775688D01*
X122332782Y-147775693D01*
X122230293Y-147878182D01*
X122230288Y-147878188D01*
X122157817Y-148003711D01*
X122157816Y-148003715D01*
X122120300Y-148143725D01*
X118801371Y-148143725D01*
X118825500Y-148053675D01*
X118825500Y-147908725D01*
X118787984Y-147768715D01*
X118720662Y-147652111D01*
X118715511Y-147643188D01*
X118715506Y-147643182D01*
X118613017Y-147540693D01*
X118613011Y-147540688D01*
X118487488Y-147468217D01*
X118487489Y-147468217D01*
X118476006Y-147465140D01*
X118347475Y-147430700D01*
X118202525Y-147430700D01*
X118073993Y-147465140D01*
X118062511Y-147468217D01*
X117936988Y-147540688D01*
X117936982Y-147540693D01*
X117834493Y-147643182D01*
X117834488Y-147643188D01*
X117762017Y-147768711D01*
X117762016Y-147768715D01*
X117724500Y-147908725D01*
X107700500Y-147908725D01*
X107700500Y-147672572D01*
X108790979Y-147672572D01*
X108826328Y-147696192D01*
X109008306Y-147771569D01*
X109008318Y-147771572D01*
X109201504Y-147809999D01*
X109201508Y-147810000D01*
X109398492Y-147810000D01*
X109398495Y-147809999D01*
X109554438Y-147778981D01*
X109591681Y-147771572D01*
X109591693Y-147771569D01*
X109773676Y-147696190D01*
X109773680Y-147696187D01*
X109809019Y-147672573D01*
X109809020Y-147672572D01*
X109300001Y-147163553D01*
X109300000Y-147163553D01*
X108790979Y-147672572D01*
X107700500Y-147672572D01*
X107700500Y-146711504D01*
X108300000Y-146711504D01*
X108300000Y-146908495D01*
X108338427Y-147101681D01*
X108338430Y-147101693D01*
X108413808Y-147283673D01*
X108413809Y-147283675D01*
X108437425Y-147319019D01*
X108946446Y-146810000D01*
X108946446Y-146809999D01*
X108903660Y-146767213D01*
X108975000Y-146767213D01*
X108975000Y-146852787D01*
X108997149Y-146935445D01*
X109039936Y-147009554D01*
X109100446Y-147070064D01*
X109174555Y-147112851D01*
X109257213Y-147135000D01*
X109342787Y-147135000D01*
X109425445Y-147112851D01*
X109499554Y-147070064D01*
X109560064Y-147009554D01*
X109602851Y-146935445D01*
X109625000Y-146852787D01*
X109625000Y-146809999D01*
X109653553Y-146809999D01*
X109653553Y-146810000D01*
X110162572Y-147319020D01*
X110162573Y-147319019D01*
X110186187Y-147283680D01*
X110186188Y-147283679D01*
X110203608Y-147241625D01*
X129013000Y-147241625D01*
X129013000Y-147386575D01*
X129036986Y-147476091D01*
X129050517Y-147526588D01*
X129122988Y-147652111D01*
X129122990Y-147652113D01*
X129122991Y-147652115D01*
X129225485Y-147754609D01*
X129225486Y-147754610D01*
X129225488Y-147754611D01*
X129351011Y-147827082D01*
X129351012Y-147827082D01*
X129351015Y-147827084D01*
X129491025Y-147864600D01*
X129491028Y-147864600D01*
X129635972Y-147864600D01*
X129635975Y-147864600D01*
X129775985Y-147827084D01*
X129901515Y-147754609D01*
X130004009Y-147652115D01*
X130076484Y-147526585D01*
X130114000Y-147386575D01*
X130114000Y-147241625D01*
X130076484Y-147101615D01*
X130023332Y-147009554D01*
X130004011Y-146976088D01*
X130004006Y-146976082D01*
X129901517Y-146873593D01*
X129901511Y-146873588D01*
X129775988Y-146801117D01*
X129775989Y-146801117D01*
X129764506Y-146798040D01*
X129635975Y-146763600D01*
X129491025Y-146763600D01*
X129362493Y-146798040D01*
X129351011Y-146801117D01*
X129225488Y-146873588D01*
X129225482Y-146873593D01*
X129122993Y-146976082D01*
X129122988Y-146976088D01*
X129050517Y-147101611D01*
X129050516Y-147101615D01*
X129013000Y-147241625D01*
X110203608Y-147241625D01*
X110226630Y-147186045D01*
X110226630Y-147186043D01*
X110261569Y-147101693D01*
X110261572Y-147101681D01*
X110299999Y-146908495D01*
X110300000Y-146908492D01*
X110300000Y-146711508D01*
X110299999Y-146711504D01*
X110261572Y-146518318D01*
X110261569Y-146518306D01*
X110186192Y-146336328D01*
X110162572Y-146300979D01*
X109653553Y-146809999D01*
X109625000Y-146809999D01*
X109625000Y-146767213D01*
X109602851Y-146684555D01*
X109560064Y-146610446D01*
X109499554Y-146549936D01*
X109425445Y-146507149D01*
X109342787Y-146485000D01*
X109257213Y-146485000D01*
X109174555Y-146507149D01*
X109100446Y-146549936D01*
X109039936Y-146610446D01*
X108997149Y-146684555D01*
X108975000Y-146767213D01*
X108903660Y-146767213D01*
X108437426Y-146300978D01*
X108437426Y-146300979D01*
X108413813Y-146336318D01*
X108413809Y-146336325D01*
X108338429Y-146518310D01*
X108338427Y-146518318D01*
X108300000Y-146711504D01*
X107700500Y-146711504D01*
X107700500Y-144343920D01*
X108549499Y-144343920D01*
X108578340Y-144488907D01*
X108578343Y-144488917D01*
X108634912Y-144625488D01*
X108634919Y-144625501D01*
X108717048Y-144748415D01*
X108717051Y-144748419D01*
X108785951Y-144817319D01*
X108819436Y-144878642D01*
X108814452Y-144948334D01*
X108785951Y-144992681D01*
X108717051Y-145061580D01*
X108717048Y-145061584D01*
X108634919Y-145184498D01*
X108634912Y-145184511D01*
X108578343Y-145321082D01*
X108578340Y-145321092D01*
X108549500Y-145466079D01*
X108549500Y-145466082D01*
X108549500Y-145613918D01*
X108549500Y-145613920D01*
X108549499Y-145613920D01*
X108578340Y-145758907D01*
X108578343Y-145758917D01*
X108634912Y-145895488D01*
X108634919Y-145895501D01*
X108717048Y-146018415D01*
X108717051Y-146018419D01*
X108821580Y-146122948D01*
X108821584Y-146122951D01*
X108944498Y-146205080D01*
X108944511Y-146205087D01*
X109081077Y-146261654D01*
X109081087Y-146261658D01*
X109081091Y-146261658D01*
X109085996Y-146263147D01*
X109137679Y-146294126D01*
X109299999Y-146456445D01*
X109462319Y-146294125D01*
X109514013Y-146263143D01*
X109518897Y-146261660D01*
X109518913Y-146261658D01*
X109655495Y-146205084D01*
X109778416Y-146122951D01*
X109882951Y-146018416D01*
X109965084Y-145895495D01*
X110021658Y-145758913D01*
X110025590Y-145739147D01*
X110033913Y-145697308D01*
X110066299Y-145635397D01*
X110127015Y-145600823D01*
X110155530Y-145597500D01*
X113927128Y-145597500D01*
X113994167Y-145617185D01*
X114039922Y-145669989D01*
X114049866Y-145739147D01*
X114046903Y-145753593D01*
X114045476Y-145758917D01*
X114027200Y-145827125D01*
X114027200Y-145972075D01*
X114044734Y-146037511D01*
X114064717Y-146112088D01*
X114137188Y-146237611D01*
X114137190Y-146237613D01*
X114137191Y-146237615D01*
X114239685Y-146340109D01*
X114239686Y-146340110D01*
X114239688Y-146340111D01*
X114365211Y-146412582D01*
X114365212Y-146412582D01*
X114365215Y-146412584D01*
X114505225Y-146450100D01*
X114505228Y-146450100D01*
X114650172Y-146450100D01*
X114650175Y-146450100D01*
X114790185Y-146412584D01*
X114915715Y-146340109D01*
X115018209Y-146237615D01*
X115052902Y-146177525D01*
X137876900Y-146177525D01*
X137876900Y-146322475D01*
X137912798Y-146456445D01*
X137914417Y-146462488D01*
X137986888Y-146588011D01*
X137986890Y-146588013D01*
X137986891Y-146588015D01*
X138089385Y-146690509D01*
X138089386Y-146690510D01*
X138089388Y-146690511D01*
X138214911Y-146762982D01*
X138214912Y-146762982D01*
X138214915Y-146762984D01*
X138354925Y-146800500D01*
X138354928Y-146800500D01*
X138499872Y-146800500D01*
X138499875Y-146800500D01*
X138639885Y-146762984D01*
X138765415Y-146690509D01*
X138867909Y-146588015D01*
X138940384Y-146462485D01*
X138977900Y-146322475D01*
X138977900Y-146177525D01*
X138940384Y-146037515D01*
X138902600Y-145972072D01*
X138867911Y-145911988D01*
X138867906Y-145911982D01*
X138765417Y-145809493D01*
X138765411Y-145809488D01*
X138639888Y-145737017D01*
X138639889Y-145737017D01*
X138628406Y-145733940D01*
X138499875Y-145699500D01*
X138354925Y-145699500D01*
X138226393Y-145733940D01*
X138214911Y-145737017D01*
X138089388Y-145809488D01*
X138089382Y-145809493D01*
X137986893Y-145911982D01*
X137986888Y-145911988D01*
X137914417Y-146037511D01*
X137914416Y-146037515D01*
X137876900Y-146177525D01*
X115052902Y-146177525D01*
X115090684Y-146112085D01*
X115128200Y-145972075D01*
X115128200Y-145827125D01*
X115108497Y-145753593D01*
X115110160Y-145683743D01*
X115149323Y-145625881D01*
X115213551Y-145598377D01*
X115228272Y-145597500D01*
X116590349Y-145597500D01*
X116657388Y-145617185D01*
X116680897Y-145638814D01*
X116681444Y-145638268D01*
X116687190Y-145644014D01*
X116687191Y-145644015D01*
X116789685Y-145746509D01*
X116789687Y-145746510D01*
X116789688Y-145746511D01*
X116915211Y-145818982D01*
X116915212Y-145818982D01*
X116915215Y-145818984D01*
X117055225Y-145856500D01*
X117055228Y-145856500D01*
X117200172Y-145856500D01*
X117200175Y-145856500D01*
X117340185Y-145818984D01*
X117465715Y-145746509D01*
X117568209Y-145644015D01*
X117640684Y-145518485D01*
X117664837Y-145428343D01*
X117701201Y-145368685D01*
X117764048Y-145338156D01*
X117816702Y-145340663D01*
X117907525Y-145365000D01*
X117907528Y-145365000D01*
X118052472Y-145365000D01*
X118052475Y-145365000D01*
X118192485Y-145327484D01*
X118318015Y-145255009D01*
X118420509Y-145152515D01*
X118492984Y-145026985D01*
X118530500Y-144886975D01*
X118530500Y-144744625D01*
X121029500Y-144744625D01*
X121029500Y-144889575D01*
X121066320Y-145026988D01*
X121067017Y-145029588D01*
X121139488Y-145155111D01*
X121139490Y-145155113D01*
X121139491Y-145155115D01*
X121241985Y-145257609D01*
X121241986Y-145257610D01*
X121241988Y-145257611D01*
X121367511Y-145330082D01*
X121367512Y-145330082D01*
X121367515Y-145330084D01*
X121507525Y-145367600D01*
X121507528Y-145367600D01*
X121652472Y-145367600D01*
X121652475Y-145367600D01*
X121792485Y-145330084D01*
X121918015Y-145257609D01*
X122020509Y-145155115D01*
X122092984Y-145029585D01*
X122130500Y-144889575D01*
X122130500Y-144744625D01*
X122125221Y-144724925D01*
X125095200Y-144724925D01*
X125095200Y-144869875D01*
X125128106Y-144992681D01*
X125132717Y-145009888D01*
X125205188Y-145135411D01*
X125205190Y-145135413D01*
X125205191Y-145135415D01*
X125307685Y-145237909D01*
X125307686Y-145237910D01*
X125307688Y-145237911D01*
X125433211Y-145310382D01*
X125433212Y-145310382D01*
X125433215Y-145310384D01*
X125573225Y-145347900D01*
X125573228Y-145347900D01*
X125718172Y-145347900D01*
X125718175Y-145347900D01*
X125858185Y-145310384D01*
X125983715Y-145237909D01*
X126086209Y-145135415D01*
X126158684Y-145009885D01*
X126196200Y-144869875D01*
X126196200Y-144786825D01*
X128229500Y-144786825D01*
X128229500Y-144931775D01*
X128267016Y-145071785D01*
X128267017Y-145071788D01*
X128339488Y-145197311D01*
X128339490Y-145197313D01*
X128339491Y-145197315D01*
X128441985Y-145299809D01*
X128441986Y-145299810D01*
X128441988Y-145299811D01*
X128567511Y-145372282D01*
X128567512Y-145372282D01*
X128567515Y-145372284D01*
X128707525Y-145409800D01*
X128707528Y-145409800D01*
X128852472Y-145409800D01*
X128852475Y-145409800D01*
X128992485Y-145372284D01*
X129118015Y-145299809D01*
X129220509Y-145197315D01*
X129292984Y-145071785D01*
X129330500Y-144931775D01*
X129330500Y-144786825D01*
X129318255Y-144741125D01*
X131829500Y-144741125D01*
X131829500Y-144886075D01*
X131862675Y-145009885D01*
X131867017Y-145026088D01*
X131939488Y-145151611D01*
X131939490Y-145151613D01*
X131939491Y-145151615D01*
X132041985Y-145254109D01*
X132041986Y-145254110D01*
X132041988Y-145254111D01*
X132167511Y-145326582D01*
X132167512Y-145326582D01*
X132167515Y-145326584D01*
X132307525Y-145364100D01*
X132307528Y-145364100D01*
X132452472Y-145364100D01*
X132452475Y-145364100D01*
X132592485Y-145326584D01*
X132718015Y-145254109D01*
X132766299Y-145205825D01*
X135348800Y-145205825D01*
X135348800Y-145350775D01*
X135379696Y-145466079D01*
X135386317Y-145490788D01*
X135458788Y-145616311D01*
X135458790Y-145616313D01*
X135458791Y-145616315D01*
X135561285Y-145718809D01*
X135561286Y-145718810D01*
X135561288Y-145718811D01*
X135686811Y-145791282D01*
X135686812Y-145791282D01*
X135686815Y-145791284D01*
X135826825Y-145828800D01*
X135826828Y-145828800D01*
X135971772Y-145828800D01*
X135971775Y-145828800D01*
X136111785Y-145791284D01*
X136237315Y-145718809D01*
X136339809Y-145616315D01*
X136412284Y-145490785D01*
X136449800Y-145350775D01*
X136449800Y-145205825D01*
X136412284Y-145065815D01*
X136409841Y-145061584D01*
X136339811Y-144940288D01*
X136339806Y-144940282D01*
X136237317Y-144837793D01*
X136237311Y-144837788D01*
X136111788Y-144765317D01*
X136111789Y-144765317D01*
X136100306Y-144762240D01*
X135971775Y-144727800D01*
X135826825Y-144727800D01*
X135698293Y-144762240D01*
X135686811Y-144765317D01*
X135561288Y-144837788D01*
X135561282Y-144837793D01*
X135458793Y-144940282D01*
X135458788Y-144940288D01*
X135386317Y-145065811D01*
X135381883Y-145082355D01*
X135348800Y-145205825D01*
X132766299Y-145205825D01*
X132820509Y-145151615D01*
X132825974Y-145142149D01*
X132829700Y-145135697D01*
X132875651Y-145056106D01*
X132892984Y-145026085D01*
X132930500Y-144886075D01*
X132930500Y-144741125D01*
X132892984Y-144601115D01*
X132846892Y-144521282D01*
X132820511Y-144475588D01*
X132820506Y-144475582D01*
X132718017Y-144373093D01*
X132718011Y-144373088D01*
X132592488Y-144300617D01*
X132592489Y-144300617D01*
X132581006Y-144297540D01*
X132452475Y-144263100D01*
X132307525Y-144263100D01*
X132178993Y-144297540D01*
X132167511Y-144300617D01*
X132041988Y-144373088D01*
X132041982Y-144373093D01*
X131939493Y-144475582D01*
X131939488Y-144475588D01*
X131867017Y-144601111D01*
X131867016Y-144601115D01*
X131829500Y-144741125D01*
X129318255Y-144741125D01*
X129292984Y-144646815D01*
X129280678Y-144625501D01*
X129220511Y-144521288D01*
X129220506Y-144521282D01*
X129118017Y-144418793D01*
X129118011Y-144418788D01*
X128992488Y-144346317D01*
X128992489Y-144346317D01*
X128981006Y-144343240D01*
X128852475Y-144308800D01*
X128707525Y-144308800D01*
X128578993Y-144343240D01*
X128567511Y-144346317D01*
X128441988Y-144418788D01*
X128441982Y-144418793D01*
X128339493Y-144521282D01*
X128339488Y-144521288D01*
X128267017Y-144646811D01*
X128267016Y-144646815D01*
X128229500Y-144786825D01*
X126196200Y-144786825D01*
X126196200Y-144724925D01*
X126158684Y-144584915D01*
X126121945Y-144521282D01*
X126086211Y-144459388D01*
X126086206Y-144459382D01*
X125983717Y-144356893D01*
X125983711Y-144356888D01*
X125858188Y-144284417D01*
X125858189Y-144284417D01*
X125846706Y-144281340D01*
X125718175Y-144246900D01*
X125573225Y-144246900D01*
X125444693Y-144281340D01*
X125433211Y-144284417D01*
X125307688Y-144356888D01*
X125307682Y-144356893D01*
X125205193Y-144459382D01*
X125205188Y-144459388D01*
X125132717Y-144584911D01*
X125132716Y-144584915D01*
X125095200Y-144724925D01*
X122125221Y-144724925D01*
X122092984Y-144604615D01*
X122090963Y-144601115D01*
X122020511Y-144479088D01*
X122020506Y-144479082D01*
X121918017Y-144376593D01*
X121918011Y-144376588D01*
X121792488Y-144304117D01*
X121792489Y-144304117D01*
X121779423Y-144300616D01*
X121652475Y-144266600D01*
X121507525Y-144266600D01*
X121380577Y-144300616D01*
X121367511Y-144304117D01*
X121241988Y-144376588D01*
X121241982Y-144376593D01*
X121139493Y-144479082D01*
X121139488Y-144479088D01*
X121067017Y-144604611D01*
X121067016Y-144604615D01*
X121029500Y-144744625D01*
X118530500Y-144744625D01*
X118530500Y-144742025D01*
X118492984Y-144602015D01*
X118492464Y-144601115D01*
X118420511Y-144476488D01*
X118420506Y-144476482D01*
X118318017Y-144373993D01*
X118318011Y-144373988D01*
X118192488Y-144301517D01*
X118192489Y-144301517D01*
X118181006Y-144298440D01*
X118052475Y-144264000D01*
X117907525Y-144264000D01*
X117778993Y-144298440D01*
X117767511Y-144301517D01*
X117641988Y-144373988D01*
X117641982Y-144373993D01*
X117539493Y-144476482D01*
X117539488Y-144476488D01*
X117467017Y-144602010D01*
X117442863Y-144692155D01*
X117406497Y-144751815D01*
X117343650Y-144782343D01*
X117290995Y-144779835D01*
X117235196Y-144764884D01*
X117200175Y-144755500D01*
X117055225Y-144755500D01*
X116926693Y-144789940D01*
X116915211Y-144793017D01*
X116789688Y-144865488D01*
X116783239Y-144870438D01*
X116781163Y-144867733D01*
X116733672Y-144893666D01*
X116707314Y-144896500D01*
X110015992Y-144896500D01*
X109948953Y-144876815D01*
X109903198Y-144824011D01*
X109893254Y-144754853D01*
X109912890Y-144703609D01*
X109965080Y-144625501D01*
X109965080Y-144625500D01*
X109965084Y-144625495D01*
X110021658Y-144488913D01*
X110035606Y-144418793D01*
X110050500Y-144343920D01*
X110050500Y-144196079D01*
X110021659Y-144051092D01*
X110021658Y-144051091D01*
X110021658Y-144051087D01*
X110021656Y-144051082D01*
X109965087Y-143914511D01*
X109965079Y-143914496D01*
X109930715Y-143863068D01*
X109909836Y-143796391D01*
X109928320Y-143729010D01*
X109937272Y-143716360D01*
X109949163Y-143701606D01*
X109980601Y-143680601D01*
X109993080Y-143661925D01*
X122587100Y-143661925D01*
X122587100Y-143806875D01*
X122624616Y-143946885D01*
X122624617Y-143946888D01*
X122697088Y-144072411D01*
X122697090Y-144072413D01*
X122697091Y-144072415D01*
X122799585Y-144174909D01*
X122799586Y-144174910D01*
X122799588Y-144174911D01*
X122925111Y-144247382D01*
X122925112Y-144247382D01*
X122925115Y-144247384D01*
X123065125Y-144284900D01*
X123065128Y-144284900D01*
X123210072Y-144284900D01*
X123210075Y-144284900D01*
X123350085Y-144247384D01*
X123475615Y-144174909D01*
X123578109Y-144072415D01*
X123650584Y-143946885D01*
X123688100Y-143806875D01*
X123688100Y-143661925D01*
X123650584Y-143521915D01*
X123578109Y-143396385D01*
X123475615Y-143293891D01*
X123475613Y-143293890D01*
X123475611Y-143293888D01*
X123350088Y-143221417D01*
X123350089Y-143221417D01*
X123338606Y-143218340D01*
X123210075Y-143183900D01*
X123065125Y-143183900D01*
X122936593Y-143218340D01*
X122925111Y-143221417D01*
X122799588Y-143293888D01*
X122799582Y-143293893D01*
X122697093Y-143396382D01*
X122697088Y-143396388D01*
X122624617Y-143521911D01*
X122624616Y-143521915D01*
X122587100Y-143661925D01*
X109993080Y-143661925D01*
X110035966Y-143597740D01*
X110050500Y-143524674D01*
X110050500Y-142475326D01*
X110050500Y-142475323D01*
X110050499Y-142475321D01*
X110035967Y-142402264D01*
X110035966Y-142402260D01*
X109980601Y-142319399D01*
X109925235Y-142282405D01*
X109897739Y-142264033D01*
X109897735Y-142264032D01*
X109824677Y-142249500D01*
X109824674Y-142249500D01*
X108775326Y-142249500D01*
X108775323Y-142249500D01*
X108702264Y-142264032D01*
X108702260Y-142264033D01*
X108619399Y-142319399D01*
X108564033Y-142402260D01*
X108564032Y-142402264D01*
X108549500Y-142475321D01*
X108549500Y-143524678D01*
X108564032Y-143597735D01*
X108564033Y-143597739D01*
X108564034Y-143597740D01*
X108619399Y-143680601D01*
X108635074Y-143691074D01*
X108679878Y-143744685D01*
X108688587Y-143814010D01*
X108669285Y-143863067D01*
X108634919Y-143914498D01*
X108634912Y-143914511D01*
X108578343Y-144051082D01*
X108578340Y-144051092D01*
X108549500Y-144196079D01*
X108549500Y-144196082D01*
X108549500Y-144343918D01*
X108549500Y-144343920D01*
X108549499Y-144343920D01*
X107700500Y-144343920D01*
X107700500Y-141753725D01*
X117429500Y-141753725D01*
X117429500Y-141898675D01*
X117465676Y-142033684D01*
X117467017Y-142038688D01*
X117539488Y-142164211D01*
X117539490Y-142164213D01*
X117539491Y-142164215D01*
X117641985Y-142266709D01*
X117641986Y-142266710D01*
X117641988Y-142266711D01*
X117767511Y-142339182D01*
X117767512Y-142339182D01*
X117767515Y-142339184D01*
X117907525Y-142376700D01*
X117907528Y-142376700D01*
X118052472Y-142376700D01*
X118052475Y-142376700D01*
X118192485Y-142339184D01*
X118318015Y-142266709D01*
X118420509Y-142164215D01*
X118492984Y-142038685D01*
X118530500Y-141898675D01*
X118530500Y-141753725D01*
X118492984Y-141613715D01*
X118481123Y-141593172D01*
X118428542Y-141502098D01*
X118428541Y-141502096D01*
X118420513Y-141488191D01*
X118420510Y-141488188D01*
X118420509Y-141488185D01*
X118380549Y-141448225D01*
X130199500Y-141448225D01*
X130199500Y-141593175D01*
X130237016Y-141733185D01*
X130237017Y-141733188D01*
X130309488Y-141858711D01*
X130309490Y-141858713D01*
X130309491Y-141858715D01*
X130411985Y-141961209D01*
X130411986Y-141961210D01*
X130411988Y-141961211D01*
X130537511Y-142033682D01*
X130537512Y-142033682D01*
X130537515Y-142033684D01*
X130677525Y-142071200D01*
X130677528Y-142071200D01*
X130822472Y-142071200D01*
X130822475Y-142071200D01*
X130962485Y-142033684D01*
X131088015Y-141961209D01*
X131190509Y-141858715D01*
X131262984Y-141733185D01*
X131300500Y-141593175D01*
X131300500Y-141448225D01*
X131262984Y-141308215D01*
X131244211Y-141275700D01*
X131218635Y-141231400D01*
X131218634Y-141231399D01*
X131190509Y-141182685D01*
X131185349Y-141177525D01*
X137853000Y-141177525D01*
X137853000Y-141322475D01*
X137886695Y-141448225D01*
X137890517Y-141462488D01*
X137962988Y-141588011D01*
X137962990Y-141588013D01*
X137962991Y-141588015D01*
X138065485Y-141690509D01*
X138065486Y-141690510D01*
X138065488Y-141690511D01*
X138191011Y-141762982D01*
X138191012Y-141762982D01*
X138191015Y-141762984D01*
X138331025Y-141800500D01*
X138331028Y-141800500D01*
X138475972Y-141800500D01*
X138475975Y-141800500D01*
X138615985Y-141762984D01*
X138741515Y-141690509D01*
X138844009Y-141588015D01*
X138916484Y-141462485D01*
X138954000Y-141322475D01*
X138954000Y-141177525D01*
X138916484Y-141037515D01*
X138899279Y-141007716D01*
X138844011Y-140911988D01*
X138844006Y-140911982D01*
X138741517Y-140809493D01*
X138741511Y-140809488D01*
X138615988Y-140737017D01*
X138615989Y-140737017D01*
X138604506Y-140733940D01*
X138475975Y-140699500D01*
X138331025Y-140699500D01*
X138202493Y-140733940D01*
X138191011Y-140737017D01*
X138065488Y-140809488D01*
X138065482Y-140809493D01*
X137962993Y-140911982D01*
X137962988Y-140911988D01*
X137890517Y-141037511D01*
X137890516Y-141037515D01*
X137853000Y-141177525D01*
X131185349Y-141177525D01*
X131088015Y-141080191D01*
X131088013Y-141080190D01*
X131088011Y-141080188D01*
X130962488Y-141007717D01*
X130962489Y-141007717D01*
X130951006Y-141004640D01*
X130822475Y-140970200D01*
X130677525Y-140970200D01*
X130548993Y-141004640D01*
X130537511Y-141007717D01*
X130411988Y-141080188D01*
X130411982Y-141080193D01*
X130309493Y-141182682D01*
X130309488Y-141182688D01*
X130237017Y-141308211D01*
X130237016Y-141308215D01*
X130199500Y-141448225D01*
X118380549Y-141448225D01*
X118318015Y-141385691D01*
X118318013Y-141385690D01*
X118318011Y-141385688D01*
X118192488Y-141313217D01*
X118192489Y-141313217D01*
X118173806Y-141308211D01*
X118052475Y-141275700D01*
X117907525Y-141275700D01*
X117786194Y-141308211D01*
X117767511Y-141313217D01*
X117641988Y-141385688D01*
X117641982Y-141385693D01*
X117539493Y-141488182D01*
X117539488Y-141488188D01*
X117467017Y-141613711D01*
X117467016Y-141613715D01*
X117429500Y-141753725D01*
X107700500Y-141753725D01*
X107700500Y-140677525D01*
X114046300Y-140677525D01*
X114046300Y-140822475D01*
X114083816Y-140962485D01*
X114083817Y-140962488D01*
X114156288Y-141088011D01*
X114156290Y-141088013D01*
X114156291Y-141088015D01*
X114258785Y-141190509D01*
X114258786Y-141190510D01*
X114258788Y-141190511D01*
X114384311Y-141262982D01*
X114384312Y-141262982D01*
X114384315Y-141262984D01*
X114524325Y-141300500D01*
X114524328Y-141300500D01*
X114669272Y-141300500D01*
X114669275Y-141300500D01*
X114809285Y-141262984D01*
X114934815Y-141190509D01*
X115037309Y-141088015D01*
X115109784Y-140962485D01*
X115147300Y-140822475D01*
X115147300Y-140677525D01*
X115109784Y-140537515D01*
X115071041Y-140470411D01*
X115037311Y-140411988D01*
X115037306Y-140411982D01*
X114934817Y-140309493D01*
X114934811Y-140309488D01*
X114809288Y-140237017D01*
X114809289Y-140237017D01*
X114797806Y-140233940D01*
X114669275Y-140199500D01*
X114524325Y-140199500D01*
X114395793Y-140233940D01*
X114384311Y-140237017D01*
X114258788Y-140309488D01*
X114258782Y-140309493D01*
X114156293Y-140411982D01*
X114156288Y-140411988D01*
X114083817Y-140537511D01*
X114083816Y-140537515D01*
X114046300Y-140677525D01*
X107700500Y-140677525D01*
X107700500Y-138965725D01*
X135348800Y-138965725D01*
X135348800Y-139110675D01*
X135386316Y-139250685D01*
X135386317Y-139250688D01*
X135458788Y-139376211D01*
X135458793Y-139376217D01*
X135530844Y-139448268D01*
X135564329Y-139509591D01*
X135559345Y-139579283D01*
X135530845Y-139623629D01*
X135462594Y-139691881D01*
X135462588Y-139691888D01*
X135390117Y-139817411D01*
X135390116Y-139817415D01*
X135352600Y-139957425D01*
X135352600Y-140102375D01*
X135388678Y-140237017D01*
X135390117Y-140242388D01*
X135462588Y-140367911D01*
X135462590Y-140367913D01*
X135462591Y-140367915D01*
X135565085Y-140470409D01*
X135565086Y-140470410D01*
X135565088Y-140470411D01*
X135690611Y-140542882D01*
X135690612Y-140542882D01*
X135690615Y-140542884D01*
X135830625Y-140580400D01*
X135830628Y-140580400D01*
X135975572Y-140580400D01*
X135975575Y-140580400D01*
X136115585Y-140542884D01*
X136241115Y-140470409D01*
X136343609Y-140367915D01*
X136416084Y-140242385D01*
X136453600Y-140102375D01*
X136453600Y-139957425D01*
X136416084Y-139817415D01*
X136343609Y-139691885D01*
X136271555Y-139619831D01*
X136238070Y-139558508D01*
X136243054Y-139488816D01*
X136271555Y-139444469D01*
X136339809Y-139376215D01*
X136412284Y-139250685D01*
X136449800Y-139110675D01*
X136449800Y-138965725D01*
X136412284Y-138825715D01*
X136339809Y-138700185D01*
X136237315Y-138597691D01*
X136237313Y-138597690D01*
X136237311Y-138597688D01*
X136111788Y-138525217D01*
X136111789Y-138525217D01*
X136094763Y-138520655D01*
X135971775Y-138487700D01*
X135826825Y-138487700D01*
X135703837Y-138520655D01*
X135686811Y-138525217D01*
X135561288Y-138597688D01*
X135561282Y-138597693D01*
X135458793Y-138700182D01*
X135458788Y-138700188D01*
X135386317Y-138825711D01*
X135386316Y-138825715D01*
X135348800Y-138965725D01*
X107700500Y-138965725D01*
X107700500Y-138092125D01*
X123010200Y-138092125D01*
X123010200Y-138237075D01*
X123041151Y-138352585D01*
X123047717Y-138377088D01*
X123120188Y-138502611D01*
X123120190Y-138502613D01*
X123120191Y-138502615D01*
X123222685Y-138605109D01*
X123222686Y-138605110D01*
X123222688Y-138605111D01*
X123348211Y-138677582D01*
X123348212Y-138677582D01*
X123348215Y-138677584D01*
X123488225Y-138715100D01*
X123488228Y-138715100D01*
X123633172Y-138715100D01*
X123633175Y-138715100D01*
X123773185Y-138677584D01*
X123898715Y-138605109D01*
X123918869Y-138584955D01*
X123980192Y-138551470D01*
X124049884Y-138556454D01*
X124094231Y-138584955D01*
X124108385Y-138599109D01*
X124108386Y-138599110D01*
X124108388Y-138599111D01*
X124233911Y-138671582D01*
X124233912Y-138671582D01*
X124233915Y-138671584D01*
X124373925Y-138709100D01*
X124373928Y-138709100D01*
X124518872Y-138709100D01*
X124518875Y-138709100D01*
X124658885Y-138671584D01*
X124784415Y-138599109D01*
X124862869Y-138520655D01*
X124924192Y-138487170D01*
X124993884Y-138492154D01*
X125038231Y-138520655D01*
X125089785Y-138572209D01*
X125089786Y-138572210D01*
X125089788Y-138572211D01*
X125215311Y-138644682D01*
X125215312Y-138644682D01*
X125215315Y-138644684D01*
X125355325Y-138682200D01*
X125355328Y-138682200D01*
X125500272Y-138682200D01*
X125500275Y-138682200D01*
X125640285Y-138644684D01*
X125765815Y-138572209D01*
X125868309Y-138469715D01*
X125940784Y-138344185D01*
X125978300Y-138204175D01*
X125978300Y-138067625D01*
X126360900Y-138067625D01*
X126360900Y-138212575D01*
X126396035Y-138343698D01*
X126398417Y-138352588D01*
X126470888Y-138478111D01*
X126470890Y-138478113D01*
X126470891Y-138478115D01*
X126573385Y-138580609D01*
X126573386Y-138580610D01*
X126573388Y-138580611D01*
X126698911Y-138653082D01*
X126698912Y-138653082D01*
X126698915Y-138653084D01*
X126838925Y-138690600D01*
X126838928Y-138690600D01*
X126983872Y-138690600D01*
X126983875Y-138690600D01*
X127123885Y-138653084D01*
X127249415Y-138580609D01*
X127351909Y-138478115D01*
X127401678Y-138391911D01*
X127452243Y-138343698D01*
X127520850Y-138330474D01*
X127585715Y-138356442D01*
X127616451Y-138391912D01*
X127673091Y-138490015D01*
X127775585Y-138592509D01*
X127775586Y-138592510D01*
X127775588Y-138592511D01*
X127901111Y-138664982D01*
X127901112Y-138664982D01*
X127901115Y-138664984D01*
X128041125Y-138702500D01*
X128041128Y-138702500D01*
X128186072Y-138702500D01*
X128186075Y-138702500D01*
X128326085Y-138664984D01*
X128451615Y-138592509D01*
X128554109Y-138490015D01*
X128626584Y-138364485D01*
X128664100Y-138224475D01*
X128664100Y-138079525D01*
X128626584Y-137939515D01*
X128619711Y-137927611D01*
X128554111Y-137813988D01*
X128554106Y-137813982D01*
X128451617Y-137711493D01*
X128451611Y-137711488D01*
X128326088Y-137639017D01*
X128326089Y-137639017D01*
X128314606Y-137635940D01*
X128186075Y-137601500D01*
X128041125Y-137601500D01*
X127912593Y-137635940D01*
X127901111Y-137639017D01*
X127775588Y-137711488D01*
X127775582Y-137711493D01*
X127673093Y-137813982D01*
X127673091Y-137813985D01*
X127623322Y-137900187D01*
X127572754Y-137948402D01*
X127504147Y-137961624D01*
X127439283Y-137935656D01*
X127408548Y-137900186D01*
X127396937Y-137880076D01*
X127351909Y-137802085D01*
X127249415Y-137699591D01*
X127249413Y-137699590D01*
X127249411Y-137699588D01*
X127123888Y-137627117D01*
X127123889Y-137627117D01*
X127112406Y-137624040D01*
X126983875Y-137589600D01*
X126838925Y-137589600D01*
X126710393Y-137624040D01*
X126698911Y-137627117D01*
X126573388Y-137699588D01*
X126573382Y-137699593D01*
X126470893Y-137802082D01*
X126470888Y-137802088D01*
X126398417Y-137927611D01*
X126398416Y-137927615D01*
X126360900Y-138067625D01*
X125978300Y-138067625D01*
X125978300Y-138059225D01*
X125940784Y-137919215D01*
X125926265Y-137894068D01*
X125868311Y-137793688D01*
X125868306Y-137793682D01*
X125765817Y-137691193D01*
X125765811Y-137691188D01*
X125640288Y-137618717D01*
X125640289Y-137618717D01*
X125623058Y-137614100D01*
X125500275Y-137581200D01*
X125355325Y-137581200D01*
X125232542Y-137614100D01*
X125215311Y-137618717D01*
X125089788Y-137691188D01*
X125089782Y-137691193D01*
X125011331Y-137769645D01*
X124950008Y-137803130D01*
X124880316Y-137798146D01*
X124835969Y-137769645D01*
X124784417Y-137718093D01*
X124784411Y-137718088D01*
X124658888Y-137645617D01*
X124658889Y-137645617D01*
X124634257Y-137639017D01*
X124518875Y-137608100D01*
X124373925Y-137608100D01*
X124258543Y-137639017D01*
X124233911Y-137645617D01*
X124108388Y-137718088D01*
X124108384Y-137718091D01*
X124088227Y-137738248D01*
X124026902Y-137771730D01*
X123957211Y-137766743D01*
X123912868Y-137738244D01*
X123898717Y-137724093D01*
X123898711Y-137724088D01*
X123773188Y-137651617D01*
X123773189Y-137651617D01*
X123761706Y-137648540D01*
X123633175Y-137614100D01*
X123488225Y-137614100D01*
X123359693Y-137648540D01*
X123348211Y-137651617D01*
X123222688Y-137724088D01*
X123222682Y-137724093D01*
X123120193Y-137826582D01*
X123120188Y-137826588D01*
X123047717Y-137952111D01*
X123047716Y-137952115D01*
X123010200Y-138092125D01*
X107700500Y-138092125D01*
X107700500Y-137078025D01*
X117429500Y-137078025D01*
X117429500Y-137222975D01*
X117467016Y-137362985D01*
X117467017Y-137362988D01*
X117539488Y-137488511D01*
X117539490Y-137488513D01*
X117539491Y-137488515D01*
X117641985Y-137591009D01*
X117641986Y-137591010D01*
X117641988Y-137591011D01*
X117767511Y-137663482D01*
X117767512Y-137663482D01*
X117767515Y-137663484D01*
X117907525Y-137701000D01*
X117907528Y-137701000D01*
X118052472Y-137701000D01*
X118052475Y-137701000D01*
X118192485Y-137663484D01*
X118318015Y-137591009D01*
X118420509Y-137488515D01*
X118492984Y-137362985D01*
X118530500Y-137222975D01*
X118530500Y-137078025D01*
X118492984Y-136938015D01*
X118420509Y-136812485D01*
X118405049Y-136797025D01*
X119924500Y-136797025D01*
X119924500Y-136941975D01*
X119962016Y-137081985D01*
X119962017Y-137081988D01*
X120034488Y-137207511D01*
X120034490Y-137207513D01*
X120034491Y-137207515D01*
X120136985Y-137310009D01*
X120136986Y-137310010D01*
X120136988Y-137310011D01*
X120262511Y-137382482D01*
X120262512Y-137382482D01*
X120262515Y-137382484D01*
X120402525Y-137420000D01*
X120402528Y-137420000D01*
X120547472Y-137420000D01*
X120547475Y-137420000D01*
X120687485Y-137382484D01*
X120813015Y-137310009D01*
X120915509Y-137207515D01*
X120987984Y-137081985D01*
X121025500Y-136941975D01*
X121025500Y-136797025D01*
X120987984Y-136657015D01*
X120976726Y-136637516D01*
X120915511Y-136531488D01*
X120915506Y-136531482D01*
X120813017Y-136428993D01*
X120813011Y-136428988D01*
X120687488Y-136356517D01*
X120687489Y-136356517D01*
X120676006Y-136353440D01*
X120547475Y-136319000D01*
X120402525Y-136319000D01*
X120273993Y-136353440D01*
X120262511Y-136356517D01*
X120136988Y-136428988D01*
X120136982Y-136428993D01*
X120034493Y-136531482D01*
X120034488Y-136531488D01*
X119962017Y-136657011D01*
X119962016Y-136657015D01*
X119924500Y-136797025D01*
X118405049Y-136797025D01*
X118318015Y-136709991D01*
X118318013Y-136709990D01*
X118318011Y-136709988D01*
X118192488Y-136637517D01*
X118192489Y-136637517D01*
X118181006Y-136634440D01*
X118052475Y-136600000D01*
X117907525Y-136600000D01*
X117778993Y-136634440D01*
X117767511Y-136637517D01*
X117641988Y-136709988D01*
X117641982Y-136709993D01*
X117539493Y-136812482D01*
X117539488Y-136812488D01*
X117467017Y-136938011D01*
X117467016Y-136938015D01*
X117429500Y-137078025D01*
X107700500Y-137078025D01*
X107700500Y-135640925D01*
X114041000Y-135640925D01*
X114041000Y-135785875D01*
X114078516Y-135925885D01*
X114078517Y-135925888D01*
X114150988Y-136051411D01*
X114150990Y-136051413D01*
X114150991Y-136051415D01*
X114253485Y-136153909D01*
X114253486Y-136153910D01*
X114253488Y-136153911D01*
X114379011Y-136226382D01*
X114379012Y-136226382D01*
X114379015Y-136226384D01*
X114519025Y-136263900D01*
X114519028Y-136263900D01*
X114663972Y-136263900D01*
X114663975Y-136263900D01*
X114803985Y-136226384D01*
X114929515Y-136153909D01*
X115032009Y-136051415D01*
X115104484Y-135925885D01*
X115142000Y-135785875D01*
X115142000Y-135677525D01*
X137871500Y-135677525D01*
X137871500Y-135822475D01*
X137899209Y-135925885D01*
X137909017Y-135962488D01*
X137981488Y-136088011D01*
X137981490Y-136088013D01*
X137981491Y-136088015D01*
X138083985Y-136190509D01*
X138083986Y-136190510D01*
X138083988Y-136190511D01*
X138209511Y-136262982D01*
X138209512Y-136262982D01*
X138209515Y-136262984D01*
X138349525Y-136300500D01*
X138349528Y-136300500D01*
X138494472Y-136300500D01*
X138494475Y-136300500D01*
X138634485Y-136262984D01*
X138760015Y-136190509D01*
X138862509Y-136088015D01*
X138934984Y-135962485D01*
X138972500Y-135822475D01*
X138972500Y-135677525D01*
X138934984Y-135537515D01*
X138862509Y-135411985D01*
X138760015Y-135309491D01*
X138760013Y-135309490D01*
X138760011Y-135309488D01*
X138634488Y-135237017D01*
X138634489Y-135237017D01*
X138623006Y-135233940D01*
X138494475Y-135199500D01*
X138349525Y-135199500D01*
X138220993Y-135233940D01*
X138209511Y-135237017D01*
X138083988Y-135309488D01*
X138083982Y-135309493D01*
X137981493Y-135411982D01*
X137981488Y-135411988D01*
X137909017Y-135537511D01*
X137909016Y-135537515D01*
X137871500Y-135677525D01*
X115142000Y-135677525D01*
X115142000Y-135640925D01*
X115104484Y-135500915D01*
X115053138Y-135411982D01*
X115032011Y-135375388D01*
X115032006Y-135375382D01*
X114929517Y-135272893D01*
X114929511Y-135272888D01*
X114803988Y-135200417D01*
X114803989Y-135200417D01*
X114792506Y-135197340D01*
X114663975Y-135162900D01*
X114519025Y-135162900D01*
X114390493Y-135197340D01*
X114379011Y-135200417D01*
X114253488Y-135272888D01*
X114253482Y-135272893D01*
X114150993Y-135375382D01*
X114150988Y-135375388D01*
X114078517Y-135500911D01*
X114078516Y-135500915D01*
X114041000Y-135640925D01*
X107700500Y-135640925D01*
X107700500Y-134087325D01*
X117429500Y-134087325D01*
X117429500Y-134232275D01*
X117453431Y-134321585D01*
X117467017Y-134372288D01*
X117539488Y-134497811D01*
X117539490Y-134497813D01*
X117539491Y-134497815D01*
X117641985Y-134600309D01*
X117641986Y-134600310D01*
X117641988Y-134600311D01*
X117767511Y-134672782D01*
X117767512Y-134672782D01*
X117767515Y-134672784D01*
X117907525Y-134710300D01*
X117907528Y-134710300D01*
X118052472Y-134710300D01*
X118052475Y-134710300D01*
X118192485Y-134672784D01*
X118318015Y-134600309D01*
X118420509Y-134497815D01*
X118492984Y-134372285D01*
X118530500Y-134232275D01*
X118530500Y-134087325D01*
X118492984Y-133947315D01*
X118463712Y-133896615D01*
X118420511Y-133821788D01*
X118420506Y-133821782D01*
X118318017Y-133719293D01*
X118318011Y-133719288D01*
X118192488Y-133646817D01*
X118192489Y-133646817D01*
X118181006Y-133643740D01*
X118052475Y-133609300D01*
X117907525Y-133609300D01*
X117778993Y-133643740D01*
X117767511Y-133646817D01*
X117641988Y-133719288D01*
X117641982Y-133719293D01*
X117539493Y-133821782D01*
X117539488Y-133821788D01*
X117467017Y-133947311D01*
X117467016Y-133947315D01*
X117429500Y-134087325D01*
X107700500Y-134087325D01*
X107700500Y-133244225D01*
X118768100Y-133244225D01*
X118768100Y-133389175D01*
X118787901Y-133463072D01*
X118805617Y-133529188D01*
X118878088Y-133654711D01*
X118878090Y-133654713D01*
X118878091Y-133654715D01*
X118980585Y-133757209D01*
X118980586Y-133757210D01*
X118980588Y-133757211D01*
X119106111Y-133829682D01*
X119106112Y-133829682D01*
X119106115Y-133829684D01*
X119246125Y-133867200D01*
X119246128Y-133867200D01*
X119391072Y-133867200D01*
X119391075Y-133867200D01*
X119531085Y-133829684D01*
X119656615Y-133757209D01*
X119759109Y-133654715D01*
X119831584Y-133529185D01*
X119869100Y-133389175D01*
X119869100Y-133244225D01*
X119831584Y-133104215D01*
X119801775Y-133052585D01*
X119759111Y-132978688D01*
X119759106Y-132978682D01*
X119656617Y-132876193D01*
X119656611Y-132876188D01*
X119531088Y-132803717D01*
X119531089Y-132803717D01*
X119519606Y-132800640D01*
X119391075Y-132766200D01*
X119246125Y-132766200D01*
X119117593Y-132800640D01*
X119106111Y-132803717D01*
X118980588Y-132876188D01*
X118980582Y-132876193D01*
X118878093Y-132978682D01*
X118878088Y-132978688D01*
X118805617Y-133104211D01*
X118805616Y-133104215D01*
X118768100Y-133244225D01*
X107700500Y-133244225D01*
X107700500Y-131545125D01*
X117693400Y-131545125D01*
X117693400Y-131690075D01*
X117725216Y-131808811D01*
X117730917Y-131830088D01*
X117803388Y-131955611D01*
X117803390Y-131955613D01*
X117803391Y-131955615D01*
X117905885Y-132058109D01*
X117905886Y-132058110D01*
X117905888Y-132058111D01*
X118031411Y-132130582D01*
X118031412Y-132130582D01*
X118031415Y-132130584D01*
X118171425Y-132168100D01*
X118171428Y-132168100D01*
X118316372Y-132168100D01*
X118316375Y-132168100D01*
X118456385Y-132130584D01*
X118581915Y-132058109D01*
X118684409Y-131955615D01*
X118756884Y-131830085D01*
X118794400Y-131690075D01*
X118794400Y-131545125D01*
X118787005Y-131517525D01*
X121128200Y-131517525D01*
X121128200Y-131662475D01*
X121155174Y-131763141D01*
X121165717Y-131802488D01*
X121238188Y-131928011D01*
X121238190Y-131928013D01*
X121238191Y-131928015D01*
X121340685Y-132030509D01*
X121340686Y-132030510D01*
X121340688Y-132030511D01*
X121466211Y-132102982D01*
X121466212Y-132102982D01*
X121466215Y-132102984D01*
X121606225Y-132140500D01*
X121606228Y-132140500D01*
X121751172Y-132140500D01*
X121751175Y-132140500D01*
X121891185Y-132102984D01*
X122016715Y-132030509D01*
X122119209Y-131928015D01*
X122191684Y-131802485D01*
X122229200Y-131662475D01*
X122229200Y-131586544D01*
X122237844Y-131557103D01*
X122244368Y-131527117D01*
X122248122Y-131522101D01*
X122248885Y-131519505D01*
X122265519Y-131498863D01*
X122400363Y-131364019D01*
X122461686Y-131330534D01*
X122488044Y-131327700D01*
X123715165Y-131327700D01*
X123782204Y-131347385D01*
X123827959Y-131400189D01*
X123837903Y-131469347D01*
X123834943Y-131483776D01*
X123809100Y-131580225D01*
X123809100Y-131725175D01*
X123837211Y-131830085D01*
X123846617Y-131865188D01*
X123919088Y-131990711D01*
X123919090Y-131990713D01*
X123919091Y-131990715D01*
X124021585Y-132093209D01*
X124021586Y-132093210D01*
X124021588Y-132093211D01*
X124147111Y-132165682D01*
X124147112Y-132165682D01*
X124147115Y-132165684D01*
X124287125Y-132203200D01*
X124363056Y-132203200D01*
X124430095Y-132222885D01*
X124450737Y-132239519D01*
X125882288Y-133671070D01*
X125882290Y-133671071D01*
X125882294Y-133671074D01*
X125947291Y-133708600D01*
X125947292Y-133708600D01*
X125962212Y-133717214D01*
X126051356Y-133741100D01*
X126051357Y-133741100D01*
X126143644Y-133741100D01*
X135267886Y-133741100D01*
X135334925Y-133760785D01*
X135380680Y-133813589D01*
X135390624Y-133882747D01*
X135387661Y-133897193D01*
X135350300Y-134036625D01*
X135350300Y-134181575D01*
X135387816Y-134321585D01*
X135387817Y-134321588D01*
X135460288Y-134447111D01*
X135460290Y-134447113D01*
X135460291Y-134447115D01*
X135562785Y-134549609D01*
X135562786Y-134549610D01*
X135562788Y-134549611D01*
X135688311Y-134622082D01*
X135688312Y-134622082D01*
X135688315Y-134622084D01*
X135828325Y-134659600D01*
X135828328Y-134659600D01*
X135973272Y-134659600D01*
X135973275Y-134659600D01*
X136113285Y-134622084D01*
X136238815Y-134549609D01*
X136341309Y-134447115D01*
X136413784Y-134321585D01*
X136451300Y-134181575D01*
X136451300Y-134036625D01*
X136413939Y-133897193D01*
X136415602Y-133827344D01*
X136454764Y-133769481D01*
X136518993Y-133741977D01*
X136533714Y-133741100D01*
X139733614Y-133741100D01*
X139800653Y-133760785D01*
X139821295Y-133777419D01*
X139874985Y-133831109D01*
X139874986Y-133831110D01*
X139874988Y-133831111D01*
X140000511Y-133903582D01*
X140000512Y-133903582D01*
X140000515Y-133903584D01*
X140140525Y-133941100D01*
X140140528Y-133941100D01*
X140285472Y-133941100D01*
X140285475Y-133941100D01*
X140425485Y-133903584D01*
X140551015Y-133831109D01*
X140653509Y-133728615D01*
X140725984Y-133603085D01*
X140763500Y-133463075D01*
X140763500Y-133318125D01*
X140725984Y-133178115D01*
X140683315Y-133104211D01*
X140653511Y-133052588D01*
X140653506Y-133052582D01*
X140551017Y-132950093D01*
X140551011Y-132950088D01*
X140425488Y-132877617D01*
X140425489Y-132877617D01*
X140412556Y-132874151D01*
X140285475Y-132840100D01*
X140140525Y-132840100D01*
X140013443Y-132874151D01*
X140000511Y-132877617D01*
X139874988Y-132950088D01*
X139874982Y-132950093D01*
X139821295Y-133003781D01*
X139759972Y-133037266D01*
X139733614Y-133040100D01*
X126294044Y-133040100D01*
X126227005Y-133020415D01*
X126206363Y-133003781D01*
X124946419Y-131743837D01*
X124912934Y-131682514D01*
X124911419Y-131674196D01*
X124910100Y-131665226D01*
X124910100Y-131580225D01*
X124882398Y-131476842D01*
X124881354Y-131469740D01*
X124885255Y-131441972D01*
X124885923Y-131413944D01*
X124890050Y-131407844D01*
X124891076Y-131400550D01*
X124909370Y-131379300D01*
X124925085Y-131356082D01*
X124931855Y-131353182D01*
X124936662Y-131347600D01*
X124963537Y-131339615D01*
X124989313Y-131328577D01*
X125003542Y-131327729D01*
X125003638Y-131327701D01*
X125003702Y-131327719D01*
X125004035Y-131327700D01*
X135388156Y-131327700D01*
X135455195Y-131347385D01*
X135475837Y-131364019D01*
X136638988Y-132527170D01*
X136718912Y-132573314D01*
X136808056Y-132597200D01*
X136808058Y-132597200D01*
X140405342Y-132597200D01*
X140405344Y-132597200D01*
X140494488Y-132573314D01*
X140574412Y-132527170D01*
X141043962Y-132057618D01*
X141105285Y-132024134D01*
X141131643Y-132021300D01*
X141207572Y-132021300D01*
X141207575Y-132021300D01*
X141347585Y-131983784D01*
X141473115Y-131911309D01*
X141575609Y-131808815D01*
X141648084Y-131683285D01*
X141685600Y-131543275D01*
X141685600Y-131398325D01*
X141648084Y-131258315D01*
X141644429Y-131251985D01*
X141575611Y-131132788D01*
X141575606Y-131132782D01*
X141473117Y-131030293D01*
X141473111Y-131030288D01*
X141373089Y-130972540D01*
X142294200Y-130972540D01*
X142294200Y-131119459D01*
X142321820Y-131258315D01*
X142322860Y-131263542D01*
X142333244Y-131288611D01*
X142379078Y-131399266D01*
X142379083Y-131399275D01*
X142460698Y-131521419D01*
X142460701Y-131521423D01*
X142564576Y-131625298D01*
X142564580Y-131625301D01*
X142686724Y-131706916D01*
X142686733Y-131706921D01*
X142711800Y-131717304D01*
X142822458Y-131763140D01*
X142966540Y-131791799D01*
X142966544Y-131791800D01*
X142966545Y-131791800D01*
X143113456Y-131791800D01*
X143113457Y-131791799D01*
X143257542Y-131763140D01*
X143393269Y-131706920D01*
X143515420Y-131625301D01*
X143619301Y-131521420D01*
X143700920Y-131399269D01*
X143757140Y-131263542D01*
X143785800Y-131119455D01*
X143785800Y-130972545D01*
X143757140Y-130828458D01*
X143702577Y-130696731D01*
X143700921Y-130692733D01*
X143700916Y-130692724D01*
X143619301Y-130570580D01*
X143619298Y-130570576D01*
X143515423Y-130466701D01*
X143515419Y-130466698D01*
X143393275Y-130385083D01*
X143393266Y-130385078D01*
X143257544Y-130328861D01*
X143257545Y-130328861D01*
X143257542Y-130328860D01*
X143257538Y-130328859D01*
X143257534Y-130328858D01*
X143113459Y-130300200D01*
X143113455Y-130300200D01*
X142966545Y-130300200D01*
X142966540Y-130300200D01*
X142822465Y-130328858D01*
X142822455Y-130328861D01*
X142686733Y-130385078D01*
X142686724Y-130385083D01*
X142564580Y-130466698D01*
X142564576Y-130466701D01*
X142460701Y-130570576D01*
X142460698Y-130570580D01*
X142379083Y-130692724D01*
X142379078Y-130692733D01*
X142322861Y-130828455D01*
X142322858Y-130828465D01*
X142294200Y-130972540D01*
X141373089Y-130972540D01*
X141347588Y-130957817D01*
X141347589Y-130957817D01*
X141336106Y-130954740D01*
X141207575Y-130920300D01*
X141062625Y-130920300D01*
X140934093Y-130954740D01*
X140922611Y-130957817D01*
X140797088Y-131030288D01*
X140797082Y-131030293D01*
X140694593Y-131132782D01*
X140694588Y-131132788D01*
X140622117Y-131258311D01*
X140622116Y-131258315D01*
X140584600Y-131398325D01*
X140584600Y-131398327D01*
X140584600Y-131474256D01*
X140564915Y-131541295D01*
X140548281Y-131561937D01*
X140250337Y-131859881D01*
X140189014Y-131893366D01*
X140162656Y-131896200D01*
X137050744Y-131896200D01*
X136983705Y-131876515D01*
X136963063Y-131859881D01*
X135799913Y-130696731D01*
X135799908Y-130696727D01*
X135719990Y-130650587D01*
X135719989Y-130650586D01*
X135719988Y-130650586D01*
X135630844Y-130626700D01*
X122245356Y-130626700D01*
X122156212Y-130650586D01*
X122156209Y-130650587D01*
X122076291Y-130696727D01*
X122076286Y-130696731D01*
X121769837Y-131003181D01*
X121708514Y-131036666D01*
X121682156Y-131039500D01*
X121606225Y-131039500D01*
X121503222Y-131067100D01*
X121466211Y-131077017D01*
X121340688Y-131149488D01*
X121340682Y-131149493D01*
X121238193Y-131251982D01*
X121238188Y-131251988D01*
X121165717Y-131377511D01*
X121165716Y-131377515D01*
X121128200Y-131517525D01*
X118787005Y-131517525D01*
X118756884Y-131405115D01*
X118754248Y-131400550D01*
X118684411Y-131279588D01*
X118684406Y-131279582D01*
X118581917Y-131177093D01*
X118581911Y-131177088D01*
X118456388Y-131104617D01*
X118456389Y-131104617D01*
X118444906Y-131101540D01*
X118316375Y-131067100D01*
X118171425Y-131067100D01*
X118042893Y-131101540D01*
X118031411Y-131104617D01*
X117905888Y-131177088D01*
X117905882Y-131177093D01*
X117803393Y-131279582D01*
X117803388Y-131279588D01*
X117730917Y-131405111D01*
X117730916Y-131405115D01*
X117693400Y-131545125D01*
X107700500Y-131545125D01*
X107700500Y-129726225D01*
X136154800Y-129726225D01*
X136154800Y-129871175D01*
X136192316Y-130011185D01*
X136192317Y-130011188D01*
X136264788Y-130136711D01*
X136264790Y-130136713D01*
X136264791Y-130136715D01*
X136367285Y-130239209D01*
X136367286Y-130239210D01*
X136367288Y-130239211D01*
X136492811Y-130311682D01*
X136492812Y-130311682D01*
X136492815Y-130311684D01*
X136632825Y-130349200D01*
X136632828Y-130349200D01*
X136777772Y-130349200D01*
X136777775Y-130349200D01*
X136917785Y-130311684D01*
X137043315Y-130239209D01*
X137050749Y-130231774D01*
X137112067Y-130198290D01*
X137181759Y-130203272D01*
X137237694Y-130245141D01*
X137252991Y-130272002D01*
X137299078Y-130383265D01*
X137299083Y-130383275D01*
X137380698Y-130505419D01*
X137380701Y-130505423D01*
X137484576Y-130609298D01*
X137484580Y-130609301D01*
X137606724Y-130690916D01*
X137606733Y-130690921D01*
X137620760Y-130696731D01*
X137742458Y-130747140D01*
X137886540Y-130775799D01*
X137886544Y-130775800D01*
X137886545Y-130775800D01*
X138033456Y-130775800D01*
X138033457Y-130775799D01*
X138177542Y-130747140D01*
X138313269Y-130690920D01*
X138435420Y-130609301D01*
X138539301Y-130505420D01*
X138620920Y-130383269D01*
X138677140Y-130247542D01*
X138705800Y-130103455D01*
X138705800Y-129956545D01*
X138677140Y-129812458D01*
X138620920Y-129676731D01*
X138620919Y-129676730D01*
X138620916Y-129676724D01*
X138539301Y-129554580D01*
X138539298Y-129554576D01*
X138435423Y-129450701D01*
X138435419Y-129450698D01*
X138313275Y-129369083D01*
X138313266Y-129369078D01*
X138177544Y-129312861D01*
X138177545Y-129312861D01*
X138177542Y-129312860D01*
X138177538Y-129312859D01*
X138177534Y-129312858D01*
X138033459Y-129284200D01*
X138033455Y-129284200D01*
X137886545Y-129284200D01*
X137886540Y-129284200D01*
X137742465Y-129312858D01*
X137742455Y-129312861D01*
X137606733Y-129369078D01*
X137606724Y-129369083D01*
X137484580Y-129450698D01*
X137380420Y-129554858D01*
X137319097Y-129588342D01*
X137249405Y-129583358D01*
X137193472Y-129541486D01*
X137185352Y-129529176D01*
X137145809Y-129460685D01*
X137043315Y-129358191D01*
X137043313Y-129358190D01*
X137043311Y-129358188D01*
X136917788Y-129285717D01*
X136917789Y-129285717D01*
X136906306Y-129282640D01*
X136777775Y-129248200D01*
X136632825Y-129248200D01*
X136504293Y-129282640D01*
X136492811Y-129285717D01*
X136367288Y-129358188D01*
X136367282Y-129358193D01*
X136264793Y-129460682D01*
X136264788Y-129460688D01*
X136192317Y-129586211D01*
X136192316Y-129586215D01*
X136154800Y-129726225D01*
X107700500Y-129726225D01*
X107700500Y-128508625D01*
X122363600Y-128508625D01*
X122363600Y-128653575D01*
X122387370Y-128742285D01*
X122401117Y-128793588D01*
X122473588Y-128919111D01*
X122473590Y-128919113D01*
X122473591Y-128919115D01*
X122576085Y-129021609D01*
X122576086Y-129021610D01*
X122576088Y-129021611D01*
X122701611Y-129094082D01*
X122701612Y-129094082D01*
X122701615Y-129094084D01*
X122841625Y-129131600D01*
X122841628Y-129131600D01*
X122986572Y-129131600D01*
X122986575Y-129131600D01*
X123126585Y-129094084D01*
X123252115Y-129021609D01*
X123270499Y-129003225D01*
X127199500Y-129003225D01*
X127199500Y-129148175D01*
X127236355Y-129285717D01*
X127237017Y-129288188D01*
X127309488Y-129413711D01*
X127309490Y-129413713D01*
X127309491Y-129413715D01*
X127411985Y-129516209D01*
X127411986Y-129516210D01*
X127411988Y-129516211D01*
X127537511Y-129588682D01*
X127537512Y-129588682D01*
X127537515Y-129588684D01*
X127677525Y-129626200D01*
X127677528Y-129626200D01*
X127822472Y-129626200D01*
X127822475Y-129626200D01*
X127962485Y-129588684D01*
X128088015Y-129516209D01*
X128190509Y-129413715D01*
X128262984Y-129288185D01*
X128300500Y-129148175D01*
X128300500Y-129007825D01*
X131199500Y-129007825D01*
X131199500Y-129152775D01*
X131235784Y-129288188D01*
X131237017Y-129292788D01*
X131309488Y-129418311D01*
X131309490Y-129418313D01*
X131309491Y-129418315D01*
X131411985Y-129520809D01*
X131411986Y-129520810D01*
X131411988Y-129520811D01*
X131537511Y-129593282D01*
X131537512Y-129593282D01*
X131537515Y-129593284D01*
X131677525Y-129630800D01*
X131677528Y-129630800D01*
X131822472Y-129630800D01*
X131822475Y-129630800D01*
X131962485Y-129593284D01*
X132088015Y-129520809D01*
X132190509Y-129418315D01*
X132262984Y-129292785D01*
X132300500Y-129152775D01*
X132300500Y-129007825D01*
X132282471Y-128940540D01*
X142294200Y-128940540D01*
X142294200Y-129087459D01*
X142322858Y-129231534D01*
X142322861Y-129231544D01*
X142379078Y-129367266D01*
X142379083Y-129367275D01*
X142460698Y-129489419D01*
X142460701Y-129489423D01*
X142564576Y-129593298D01*
X142564580Y-129593301D01*
X142686724Y-129674916D01*
X142686730Y-129674919D01*
X142686731Y-129674920D01*
X142822458Y-129731140D01*
X142966540Y-129759799D01*
X142966544Y-129759800D01*
X142966545Y-129759800D01*
X143113456Y-129759800D01*
X143113457Y-129759799D01*
X143257542Y-129731140D01*
X143393269Y-129674920D01*
X143515420Y-129593301D01*
X143619301Y-129489420D01*
X143700920Y-129367269D01*
X143757140Y-129231542D01*
X143785800Y-129087455D01*
X143785800Y-128940545D01*
X143757140Y-128796458D01*
X143700920Y-128660731D01*
X143700919Y-128660730D01*
X143700916Y-128660724D01*
X143619301Y-128538580D01*
X143619298Y-128538576D01*
X143515423Y-128434701D01*
X143515419Y-128434698D01*
X143393275Y-128353083D01*
X143393266Y-128353078D01*
X143257544Y-128296861D01*
X143257545Y-128296861D01*
X143257542Y-128296860D01*
X143257538Y-128296859D01*
X143257534Y-128296858D01*
X143113459Y-128268200D01*
X143113455Y-128268200D01*
X142966545Y-128268200D01*
X142966540Y-128268200D01*
X142822465Y-128296858D01*
X142822455Y-128296861D01*
X142686733Y-128353078D01*
X142686724Y-128353083D01*
X142564580Y-128434698D01*
X142564576Y-128434701D01*
X142460701Y-128538576D01*
X142460698Y-128538580D01*
X142379083Y-128660724D01*
X142379078Y-128660733D01*
X142322861Y-128796455D01*
X142322858Y-128796465D01*
X142294200Y-128940540D01*
X132282471Y-128940540D01*
X132262984Y-128867815D01*
X132190509Y-128742285D01*
X132088015Y-128639791D01*
X132088013Y-128639790D01*
X132088011Y-128639788D01*
X131962488Y-128567317D01*
X131962489Y-128567317D01*
X131945318Y-128562716D01*
X131822475Y-128529800D01*
X131677525Y-128529800D01*
X131554682Y-128562716D01*
X131537511Y-128567317D01*
X131411988Y-128639788D01*
X131411982Y-128639793D01*
X131309493Y-128742282D01*
X131309488Y-128742288D01*
X131237017Y-128867811D01*
X131237016Y-128867815D01*
X131199500Y-129007825D01*
X128300500Y-129007825D01*
X128300500Y-129003225D01*
X128262984Y-128863215D01*
X128190509Y-128737685D01*
X128088015Y-128635191D01*
X128088013Y-128635190D01*
X128088011Y-128635188D01*
X127962488Y-128562717D01*
X127962489Y-128562717D01*
X127951006Y-128559640D01*
X127822475Y-128525200D01*
X127677525Y-128525200D01*
X127548993Y-128559640D01*
X127537511Y-128562717D01*
X127411988Y-128635188D01*
X127411982Y-128635193D01*
X127309493Y-128737682D01*
X127309488Y-128737688D01*
X127237017Y-128863211D01*
X127237016Y-128863215D01*
X127199500Y-129003225D01*
X123270499Y-129003225D01*
X123354609Y-128919115D01*
X123427084Y-128793585D01*
X123464600Y-128653575D01*
X123464600Y-128508625D01*
X123427084Y-128368615D01*
X123397462Y-128317309D01*
X123354611Y-128243088D01*
X123354606Y-128243082D01*
X123252117Y-128140593D01*
X123252111Y-128140588D01*
X123126588Y-128068117D01*
X123126589Y-128068117D01*
X123115106Y-128065040D01*
X122986575Y-128030600D01*
X122841625Y-128030600D01*
X122713093Y-128065040D01*
X122701611Y-128068117D01*
X122576088Y-128140588D01*
X122576082Y-128140593D01*
X122473593Y-128243082D01*
X122473588Y-128243088D01*
X122401117Y-128368611D01*
X122401116Y-128368615D01*
X122363600Y-128508625D01*
X107700500Y-128508625D01*
X107700500Y-127804325D01*
X118026800Y-127804325D01*
X118026800Y-127949275D01*
X118058644Y-128068116D01*
X118064317Y-128089288D01*
X118136788Y-128214811D01*
X118136790Y-128214813D01*
X118136791Y-128214815D01*
X118239285Y-128317309D01*
X118239286Y-128317310D01*
X118239288Y-128317311D01*
X118364811Y-128389782D01*
X118364812Y-128389782D01*
X118364815Y-128389784D01*
X118504825Y-128427300D01*
X118504828Y-128427300D01*
X118649772Y-128427300D01*
X118649775Y-128427300D01*
X118789785Y-128389784D01*
X118915315Y-128317309D01*
X119017809Y-128214815D01*
X119090284Y-128089285D01*
X119127800Y-127949275D01*
X119127800Y-127804325D01*
X133714000Y-127804325D01*
X133714000Y-127949275D01*
X133745844Y-128068116D01*
X133751517Y-128089288D01*
X133823988Y-128214811D01*
X133823990Y-128214813D01*
X133823991Y-128214815D01*
X133926485Y-128317309D01*
X133926486Y-128317310D01*
X133926488Y-128317311D01*
X134052011Y-128389782D01*
X134052012Y-128389782D01*
X134052015Y-128389784D01*
X134192025Y-128427300D01*
X134192028Y-128427300D01*
X134336972Y-128427300D01*
X134336975Y-128427300D01*
X134476985Y-128389784D01*
X134602515Y-128317309D01*
X134705009Y-128214815D01*
X134777484Y-128089285D01*
X134815000Y-127949275D01*
X134815000Y-127804325D01*
X134777484Y-127664315D01*
X134705009Y-127538785D01*
X134602515Y-127436291D01*
X134602513Y-127436290D01*
X134602511Y-127436288D01*
X134476988Y-127363817D01*
X134476989Y-127363817D01*
X134465506Y-127360740D01*
X134336975Y-127326300D01*
X134192025Y-127326300D01*
X134063493Y-127360740D01*
X134052011Y-127363817D01*
X133926488Y-127436288D01*
X133926482Y-127436293D01*
X133823993Y-127538782D01*
X133823988Y-127538788D01*
X133751517Y-127664311D01*
X133751516Y-127664315D01*
X133714000Y-127804325D01*
X119127800Y-127804325D01*
X119090284Y-127664315D01*
X119017809Y-127538785D01*
X118915315Y-127436291D01*
X118915313Y-127436290D01*
X118915311Y-127436288D01*
X118789788Y-127363817D01*
X118789789Y-127363817D01*
X118778306Y-127360740D01*
X118649775Y-127326300D01*
X118504825Y-127326300D01*
X118376293Y-127360740D01*
X118364811Y-127363817D01*
X118239288Y-127436288D01*
X118239282Y-127436293D01*
X118136793Y-127538782D01*
X118136788Y-127538788D01*
X118064317Y-127664311D01*
X118064316Y-127664315D01*
X118026800Y-127804325D01*
X107700500Y-127804325D01*
X107700500Y-126854500D01*
X107720185Y-126787461D01*
X107772989Y-126741706D01*
X107824500Y-126730500D01*
X145175500Y-126730500D01*
X145242539Y-126750185D01*
G37*
%TD.AperFunction*%
%TD*%
M02*
