M48
; DRILL file KiCad 10.0.1 date 2026-07-10T20:05:17
; FORMAT={-:-/ absolute / metric / decimal}
; #@! TF.CreationDate,2026-07-10T20:05:17-04:00
; #@! TF.GenerationSoftware,Kicad,Pcbnew,10.0.1
; #@! TF.FileFunction,MixedPlating,1,4
FMAT,2
METRIC
; #@! TA.AperFunction,Plated,PTH,ViaDrill
T1C0.300
; #@! TA.AperFunction,Plated,PTH,ComponentDrill
T2C0.650
; #@! TA.AperFunction,NonPlated,NPTH,ComponentDrill
T3C0.991
%
G90
G05
T1
X111.22Y-157.98
X112.49Y-157.98
X112.49Y-162.01
X113.76Y-157.995
X114.568Y-146.75
X114.573Y-139.75
X114.578Y-145.9
X114.591Y-135.713
X114.597Y-140.75
X115.837Y-150.439
X116.894Y-153.136
X117.079Y-149.307
X117.083Y-152.329
X117.091Y-130.266
X117.128Y-145.306
X117.255Y-143.175
X117.258Y-135.832
X117.275Y-138.829
X117.98Y-134.16
X117.98Y-137.15
X117.98Y-141.826
X117.98Y-144.814
X118.244Y-131.618
X118.275Y-147.981
X118.577Y-127.877
X119.319Y-133.317
X119.64Y-153.24
X119.827Y-143.77
X120.11Y-162.01
X120.475Y-136.869
X120.972Y-147.977
X121.38Y-157.984
X121.58Y-144.817
X121.679Y-131.59
X121.721Y-153.88
X122.25Y-129.064
X122.288Y-157.54
X122.338Y-153.217
X122.584Y-162.01
X122.671Y-148.216
X122.914Y-128.581
X123.016Y-145.942
X123.138Y-143.734
X123.561Y-138.165
X123.998Y-157.546
X124.22Y-144.814
X124.36Y-131.653
X124.397Y-152.914
X124.446Y-138.159
X124.483Y-150.41
X125.19Y-162.01
X125.262Y-152.922
X125.428Y-138.132
X125.525Y-150.408
X125.646Y-144.797
X125.9Y-141.507
X126.317Y-149.814
X126.567Y-147.917
X126.602Y-153.802
X126.622Y-157.78
X126.792Y-162.01
X126.911Y-138.14
X127.198Y-144.622
X127.75Y-129.076
X127.82Y-147.82
X128.114Y-138.152
X128.25Y-131.587
X128.78Y-144.859
X128.862Y-153.14
X129.564Y-147.314
X129.75Y-153.705
X130.75Y-129.072
X130.75Y-141.521
X130.861Y-153.073
X131.25Y-150.413
X131.42Y-144.813
X131.75Y-129.08
X132.175Y-157.78
X132.25Y-150.395
X132.38Y-144.814
X132.394Y-152.904
X133.75Y-153.341
X134.264Y-127.877
X135.02Y-135.827
X135.02Y-138.837
X135.02Y-140.175
X135.02Y-144.813
X135.136Y-149.89
X135.899Y-139.038
X135.899Y-145.278
X135.901Y-134.109
X135.903Y-140.03
X135.911Y-151.924
X136.705Y-129.799
X137.162Y-131.589
X137.89Y-162.01
X138.403Y-141.25
X138.408Y-147.154
X138.422Y-135.75
X138.427Y-142.25
X138.427Y-146.25
X139.871Y-131.337
X140.213Y-133.391
X141.135Y-131.471
T2
X109.3Y-143.0
X109.3Y-144.27
X109.3Y-145.54
X109.3Y-146.81
T3
X137.96Y-130.03
X143.04Y-129.014
X143.04Y-131.046
M30
