%TF.GenerationSoftware,KiCad,Pcbnew,10.0.1*%
%TF.CreationDate,2026-07-10T20:05:17-04:00*%
%TF.ProjectId,ipod-sd-udma,69706f64-2d73-4642-9d75-646d612e6b69,rev?*%
%TF.SameCoordinates,Original*%
%TF.FileFunction,Copper,L4,Bot*%
%TF.FilePolarity,Positive*%
%FSLAX46Y46*%
G04 Gerber Fmt 4.6, Leading zero omitted, Abs format (unit mm)*
G04 Created by KiCad (PCBNEW 10.0.1) date 2026-07-10 20:05:17*
%MOMM*%
%LPD*%
G01*
G04 APERTURE LIST*
G04 Aperture macros list*
%AMRoundRect*
0 Rectangle with rounded corners*
0 $1 Rounding radius*
0 $2 $3 $4 $5 $6 $7 $8 $9 X,Y pos of 4 corners*
0 Add a 4 corners polygon primitive as box body*
4,1,4,$2,$3,$4,$5,$6,$7,$8,$9,$2,$3,0*
0 Add four circle primitives for the rounded corners*
1,1,$1+$1,$2,$3*
1,1,$1+$1,$4,$5*
1,1,$1+$1,$6,$7*
1,1,$1+$1,$8,$9*
0 Add four rect primitives between the rounded corners*
20,1,$1+$1,$2,$3,$4,$5,0*
20,1,$1+$1,$4,$5,$6,$7,0*
20,1,$1+$1,$6,$7,$8,$9,0*
20,1,$1+$1,$8,$9,$2,$3,0*%
G04 Aperture macros list end*
%TA.AperFunction,SMDPad,CuDef*%
%ADD10R,0.850000X3.000000*%
%TD*%
%TA.AperFunction,ComponentPad*%
%ADD11R,1.000000X1.000000*%
%TD*%
%TA.AperFunction,ComponentPad*%
%ADD12C,1.000000*%
%TD*%
%TA.AperFunction,SMDPad,CuDef*%
%ADD13RoundRect,0.140000X0.140000X0.170000X-0.140000X0.170000X-0.140000X-0.170000X0.140000X-0.170000X0*%
%TD*%
%TA.AperFunction,SMDPad,CuDef*%
%ADD14RoundRect,0.225000X0.225000X0.250000X-0.225000X0.250000X-0.225000X-0.250000X0.225000X-0.250000X0*%
%TD*%
%TA.AperFunction,SMDPad,CuDef*%
%ADD15R,0.700000X1.200000*%
%TD*%
%TA.AperFunction,SMDPad,CuDef*%
%ADD16R,1.000000X0.800000*%
%TD*%
%TA.AperFunction,SMDPad,CuDef*%
%ADD17R,1.000000X2.800000*%
%TD*%
%TA.AperFunction,SMDPad,CuDef*%
%ADD18R,1.000000X1.200000*%
%TD*%
%TA.AperFunction,SMDPad,CuDef*%
%ADD19R,1.300000X1.900000*%
%TD*%
%TA.AperFunction,SMDPad,CuDef*%
%ADD20RoundRect,0.250000X0.250000X0.475000X-0.250000X0.475000X-0.250000X-0.475000X0.250000X-0.475000X0*%
%TD*%
%TA.AperFunction,ViaPad*%
%ADD21C,0.600000*%
%TD*%
%TA.AperFunction,Conductor*%
%ADD22C,0.200000*%
%TD*%
G04 APERTURE END LIST*
D10*
%TO.P,J1,2*%
%TO.N,GND*%
X137890000Y-160000000D03*
%TO.P,J1,4*%
%TO.N,HD8*%
X136620000Y-160000000D03*
%TO.P,J1,6*%
%TO.N,HD9*%
X135350000Y-160000000D03*
%TO.P,J1,8*%
%TO.N,HD10*%
X134080000Y-160000000D03*
%TO.P,J1,10*%
%TO.N,HD11*%
X132810000Y-160000000D03*
%TO.P,J1,12*%
%TO.N,HD12*%
X131540000Y-160000000D03*
%TO.P,J1,14*%
%TO.N,HD13*%
X130270000Y-160000000D03*
%TO.P,J1,16*%
%TO.N,HD14*%
X129000000Y-160000000D03*
%TO.P,J1,18*%
%TO.N,HD15*%
X127730000Y-160000000D03*
%TO.P,J1,20*%
%TO.N,N/C*%
X126460000Y-160000000D03*
%TO.P,J1,22*%
%TO.N,GND*%
X125190000Y-160000000D03*
%TO.P,J1,24*%
X123920000Y-160000000D03*
%TO.P,J1,26*%
X122650000Y-160000000D03*
%TO.P,J1,28*%
X121380000Y-160000000D03*
%TO.P,J1,30*%
X120110000Y-160000000D03*
%TO.P,J1,32*%
%TO.N,N/C*%
X118840000Y-160000000D03*
%TO.P,J1,34*%
X117570000Y-160000000D03*
%TO.P,J1,36*%
%TO.N,HDA2*%
X116300000Y-160000000D03*
%TO.P,J1,38*%
%TO.N,HCS1*%
X115030000Y-160000000D03*
%TO.P,J1,40*%
%TO.N,GND*%
X113760000Y-160000000D03*
%TO.P,J1,42*%
%TO.N,P3V3*%
X112490000Y-160000000D03*
%TO.P,J1,44*%
%TO.N,N/C*%
X111220000Y-160000000D03*
%TO.P,J1,B*%
X141700000Y-160000000D03*
%TO.P,J1,D*%
X140430000Y-160000000D03*
%TO.P,J1,F*%
X139160000Y-160000000D03*
%TD*%
D11*
%TO.P,J5,1*%
%TO.N,GND*%
X109300000Y-143000000D03*
D12*
%TO.P,J5,2*%
%TO.N,U_RX*%
X109300000Y-144270000D03*
%TO.P,J5,3*%
%TO.N,U_TX*%
X109300000Y-145540000D03*
%TO.P,J5,4*%
%TO.N,P3V3*%
X109300000Y-146810000D03*
%TD*%
D13*
%TO.P,C11,1*%
%TO.N,GND*%
X125180000Y-144000000D03*
%TO.P,C11,2*%
%TO.N,P3V3*%
X124220000Y-144000000D03*
%TD*%
%TO.P,C6,1*%
%TO.N,GND*%
X117980000Y-141000000D03*
%TO.P,C6,2*%
%TO.N,P3V3*%
X117020000Y-141000000D03*
%TD*%
%TO.P,C2,1*%
%TO.N,GND*%
X135980000Y-135000000D03*
%TO.P,C2,2*%
%TO.N,P3V3*%
X135020000Y-135000000D03*
%TD*%
%TO.P,C4,1*%
%TO.N,GND*%
X135980000Y-138000000D03*
%TO.P,C4,2*%
%TO.N,P3V3*%
X135020000Y-138000000D03*
%TD*%
D14*
%TO.P,C5,1*%
%TO.N,GND*%
X118275000Y-147000000D03*
%TO.P,C5,2*%
%TO.N,P3V3*%
X116725000Y-147000000D03*
%TD*%
D13*
%TO.P,C3,1*%
%TO.N,GND*%
X117980000Y-138000000D03*
%TO.P,C3,2*%
%TO.N,P3V3*%
X117020000Y-138000000D03*
%TD*%
%TO.P,C8,1*%
%TO.N,GND*%
X117980000Y-144000000D03*
%TO.P,C8,2*%
%TO.N,P3V3*%
X117020000Y-144000000D03*
%TD*%
%TO.P,C14,1*%
%TO.N,GND*%
X135980000Y-144000000D03*
%TO.P,C14,2*%
%TO.N,P3V3*%
X135020000Y-144000000D03*
%TD*%
D15*
%TO.P,J2,1*%
%TO.N,SDD2*%
X129200000Y-142630000D03*
%TO.P,J2,2*%
%TO.N,SDD3*%
X128100000Y-142630000D03*
%TO.P,J2,3*%
%TO.N,SDCMD*%
X127000000Y-142630000D03*
%TO.P,J2,4*%
%TO.N,P3V3*%
X125900000Y-142630000D03*
%TO.P,J2,5*%
%TO.N,SDCLK*%
X124800000Y-142630000D03*
%TO.P,J2,6*%
%TO.N,GND*%
X123700000Y-142630000D03*
%TO.P,J2,7*%
%TO.N,SDD0*%
X122600000Y-142630000D03*
%TO.P,J2,8*%
%TO.N,SDD1*%
X121500000Y-142630000D03*
%TO.P,J2,9*%
%TO.N,SDCD*%
X120550000Y-142630000D03*
D16*
%TO.P,J2,10*%
%TO.N,GND*%
X119600000Y-132130000D03*
D17*
%TO.P,J2,SH*%
X119600000Y-127980000D03*
D18*
X119600000Y-138330000D03*
X130750000Y-142630000D03*
D19*
X133100000Y-127530000D03*
%TD*%
D20*
%TO.P,C10,1*%
%TO.N,GND*%
X122050000Y-147000000D03*
%TO.P,C10,2*%
%TO.N,P3V3*%
X120150000Y-147000000D03*
%TD*%
D13*
%TO.P,C13,1*%
%TO.N,GND*%
X132380000Y-144000000D03*
%TO.P,C13,2*%
%TO.N,P3V3*%
X131420000Y-144000000D03*
%TD*%
%TO.P,C12,1*%
%TO.N,GND*%
X128780000Y-144000000D03*
%TO.P,C12,2*%
%TO.N,P3V3*%
X127820000Y-144000000D03*
%TD*%
%TO.P,C7,1*%
%TO.N,GND*%
X135980000Y-141000000D03*
%TO.P,C7,2*%
%TO.N,P3V3*%
X135020000Y-141000000D03*
%TD*%
%TO.P,C9,1*%
%TO.N,GND*%
X121580000Y-144000000D03*
%TO.P,C9,2*%
%TO.N,P3V3*%
X120620000Y-144000000D03*
%TD*%
D20*
%TO.P,C16,1*%
%TO.N,GND*%
X125650000Y-147000000D03*
%TO.P,C16,2*%
%TO.N,P3V3*%
X123750000Y-147000000D03*
%TD*%
D13*
%TO.P,C15,1*%
%TO.N,GND*%
X128780000Y-147000000D03*
%TO.P,C15,2*%
%TO.N,P3V3*%
X127820000Y-147000000D03*
%TD*%
%TO.P,C1,1*%
%TO.N,GND*%
X117980000Y-135000000D03*
%TO.P,C1,2*%
%TO.N,P3V3*%
X117020000Y-135000000D03*
%TD*%
D21*
%TO.N,GND*%
X111220000Y-157980000D03*
X138427400Y-146250000D03*
X135899300Y-145278300D03*
X132380000Y-144813600D03*
X113760000Y-157995000D03*
X137890000Y-162010000D03*
X114596800Y-140750000D03*
X128780000Y-144859300D03*
X135899300Y-139038200D03*
X114577700Y-145899600D03*
X126566600Y-147916600D03*
X126792300Y-162010000D03*
X122288200Y-157539900D03*
X136705300Y-129798700D03*
X130750000Y-141520700D03*
X129563500Y-147314100D03*
X135900800Y-134109100D03*
X131750000Y-129080300D03*
X127750000Y-129075700D03*
X125190000Y-162010000D03*
X125645700Y-144797400D03*
X134264500Y-127876800D03*
X118275000Y-147981200D03*
X117980000Y-137150500D03*
X122914100Y-128581100D03*
X118577300Y-127876800D03*
X122670800Y-148216200D03*
X121380000Y-157983900D03*
X123137600Y-143734400D03*
X117980000Y-141826200D03*
X120110000Y-162010000D03*
X135903100Y-140029900D03*
X138422000Y-135750000D03*
X123998000Y-157545700D03*
X117980000Y-144814500D03*
X121580000Y-144817100D03*
X131250000Y-150413400D03*
X122337700Y-153216800D03*
X138403500Y-141250000D03*
X119318600Y-133316700D03*
X117980000Y-134159800D03*
X125524700Y-150407800D03*
X114591500Y-135713400D03*
%TO.N,HD8*%
X133750000Y-153341300D03*
%TO.N,HD9*%
X132394300Y-152904000D03*
%TO.N,HD10*%
X130861200Y-153072900D03*
%TO.N,HD4*%
X132175000Y-157780300D03*
X135135600Y-149890400D03*
%TO.N,HD11*%
X129750000Y-153704700D03*
%TO.N,HD12*%
X128861500Y-153140200D03*
%TO.N,HD13*%
X126316600Y-149814500D03*
%TO.N,HD14*%
X126602500Y-153801800D03*
%TO.N,HD0*%
X126622500Y-157780300D03*
X124483400Y-150409900D03*
%TO.N,HD15*%
X125262400Y-152922000D03*
%TO.N,HIORDY*%
X122583800Y-162010000D03*
X121721300Y-153879700D03*
%TO.N,HDA2*%
X119639600Y-153239900D03*
%TO.N,HCS1*%
X116894500Y-153136300D03*
%TO.N,P3V3*%
X112490000Y-162010000D03*
X127197700Y-144622300D03*
X115837500Y-150439400D03*
X127820000Y-147820400D03*
X138408100Y-147153800D03*
X135020000Y-140175000D03*
X120971600Y-147977400D03*
X130750000Y-129072200D03*
X119827200Y-143770200D03*
X117275500Y-138829000D03*
X128250000Y-131587200D03*
X117257600Y-135832000D03*
X122250000Y-129063500D03*
X125900000Y-141507300D03*
X124396600Y-152914300D03*
X123016000Y-145942500D03*
X117078700Y-149306800D03*
X139870600Y-131337300D03*
X132250000Y-150394600D03*
X135020000Y-144812900D03*
X124220000Y-144813700D03*
X112490000Y-157980400D03*
X117091200Y-130265600D03*
X138426700Y-142250000D03*
X135020000Y-138837300D03*
X131420000Y-144812800D03*
X117254600Y-143174800D03*
X135911000Y-151923600D03*
X117083000Y-152329500D03*
X114572800Y-139750000D03*
X114567700Y-146750000D03*
X137162500Y-131589400D03*
X135020000Y-135827200D03*
%TO.N,U_TX*%
X117127700Y-145306000D03*
%TO.N,TCK*%
X124359600Y-131652700D03*
X140213000Y-133390600D03*
%TO.N,TDI*%
X121678700Y-131590000D03*
X141135100Y-131470800D03*
%TO.N,SDD2*%
X128113600Y-138152000D03*
%TO.N,SDD3*%
X126911400Y-138140100D03*
%TO.N,SDCMD*%
X125427800Y-138131700D03*
%TO.N,SDCLK*%
X124446400Y-138158600D03*
%TO.N,SDD0*%
X123560700Y-138164600D03*
%TO.N,SDD1*%
X120475000Y-136869500D03*
%TO.N,SDCD*%
X118243900Y-131617600D03*
%TD*%
%TO.N,GND*%
D22*
X135980000Y-134188300D02*
X135980000Y-135000000D01*
X125180000Y-144331700D02*
X125180000Y-144000000D01*
X122050000Y-147595400D02*
X122050000Y-147000000D01*
X119496800Y-127876800D02*
X119600000Y-127980000D01*
X129094100Y-147314100D02*
X128780000Y-147000000D01*
X123340300Y-143531700D02*
X123700000Y-143531700D01*
X119600000Y-132130000D02*
X119600000Y-133035300D01*
X132380000Y-144000000D02*
X132380000Y-144813600D01*
X118577300Y-127876800D02*
X119496800Y-127876800D01*
X123998000Y-157545700D02*
X123920000Y-157623700D01*
X137890000Y-162010000D02*
X137890000Y-160000000D01*
X121580000Y-144000000D02*
X121580000Y-144817100D01*
X117980000Y-134159800D02*
X117980000Y-135000000D01*
X135980000Y-145197600D02*
X135980000Y-144000000D01*
X113760000Y-160000000D02*
X113760000Y-157995000D01*
X135980000Y-138957500D02*
X135980000Y-138000000D01*
X123137600Y-143734400D02*
X123340300Y-143531700D01*
X119600000Y-133035300D02*
X119318600Y-133316700D01*
X125190000Y-160000000D02*
X125190000Y-162010000D01*
X130750000Y-141520700D02*
X130750000Y-142630000D01*
X118310000Y-138330000D02*
X119600000Y-138330000D01*
X121380000Y-157983900D02*
X121380000Y-160000000D01*
X135899300Y-139038200D02*
X135980000Y-138957500D01*
X135899300Y-145278300D02*
X135980000Y-145197600D01*
X122288200Y-157539900D02*
X122650000Y-157901700D01*
X135900800Y-134109100D02*
X135980000Y-134188300D01*
X123700000Y-142630000D02*
X123700000Y-143531700D01*
X135903100Y-140029900D02*
X135980000Y-140106800D01*
X135980000Y-140106800D02*
X135980000Y-141000000D01*
X117980000Y-144814500D02*
X117980000Y-144000000D01*
X117980000Y-141000000D02*
X117980000Y-141826200D01*
X118275000Y-147981200D02*
X118275000Y-147000000D01*
X134051700Y-127530000D02*
X134051700Y-127664000D01*
X123920000Y-157623700D02*
X123920000Y-160000000D01*
X122650000Y-157901700D02*
X122650000Y-160000000D01*
X117980000Y-138000000D02*
X118310000Y-138330000D01*
X129563500Y-147314100D02*
X129094100Y-147314100D01*
X125645700Y-144797400D02*
X125180000Y-144331700D01*
X134051700Y-127664000D02*
X134264500Y-127876800D01*
X126566600Y-147916600D02*
X125650000Y-147000000D01*
X120110000Y-160000000D02*
X120110000Y-162010000D01*
X122670800Y-148216200D02*
X122050000Y-147595400D01*
X133100000Y-127530000D02*
X134051700Y-127530000D01*
X128780000Y-144859300D02*
X128780000Y-144000000D01*
X117980000Y-137150500D02*
X117980000Y-138000000D01*
%TO.N,HD8*%
X136620000Y-160000000D02*
X136620000Y-156211300D01*
X136620000Y-156211300D02*
X133750000Y-153341300D01*
%TO.N,HD9*%
X135350000Y-160000000D02*
X135350000Y-155859700D01*
X135350000Y-155859700D02*
X132394300Y-152904000D01*
%TO.N,HD10*%
X134080000Y-156291700D02*
X130861200Y-153072900D01*
X134080000Y-160000000D02*
X134080000Y-156291700D01*
%TO.N,HD11*%
X132810000Y-160000000D02*
X132810000Y-156764700D01*
X132810000Y-156764700D02*
X129750000Y-153704700D01*
%TO.N,HD12*%
X131540000Y-156345500D02*
X131540000Y-158198300D01*
X128861500Y-153667000D02*
X131540000Y-156345500D01*
X128861500Y-153140200D02*
X128861500Y-153667000D01*
X131540000Y-160000000D02*
X131540000Y-158198300D01*
%TO.N,HD13*%
X130270000Y-156616900D02*
X126316600Y-152663500D01*
X130270000Y-160000000D02*
X130270000Y-156616900D01*
X126316600Y-152663500D02*
X126316600Y-149814500D01*
%TO.N,HD14*%
X129000000Y-156199300D02*
X126602500Y-153801800D01*
X129000000Y-160000000D02*
X129000000Y-156199300D01*
%TO.N,HD15*%
X127730000Y-155805300D02*
X125262400Y-153337700D01*
X127730000Y-160000000D02*
X127730000Y-155805300D01*
X125262400Y-153337700D02*
X125262400Y-152922000D01*
%TO.N,HDA2*%
X116300000Y-160000000D02*
X116300000Y-156579500D01*
X116300000Y-156579500D02*
X119639600Y-153239900D01*
%TO.N,HCS1*%
X115030000Y-155000800D02*
X116894500Y-153136300D01*
X115030000Y-160000000D02*
X115030000Y-155000800D01*
%TO.N,P3V3*%
X117020000Y-139084500D02*
X117020000Y-141000000D01*
X119827200Y-143770200D02*
X120390200Y-143770200D01*
X117020000Y-143409400D02*
X117020000Y-144000000D01*
X135020000Y-135827200D02*
X135020000Y-135000000D01*
X124220000Y-144813700D02*
X124220000Y-144000000D01*
X117275500Y-138829000D02*
X117020000Y-138573500D01*
X127820000Y-144000000D02*
X127197700Y-144622300D01*
X127820000Y-147000000D02*
X127820000Y-147820400D01*
X135020000Y-144812900D02*
X135020000Y-144000000D01*
X117020000Y-138573500D02*
X117020000Y-138000000D01*
X135020000Y-138000000D02*
X135020000Y-138837300D01*
X117020000Y-135594400D02*
X117020000Y-135000000D01*
X117275500Y-138829000D02*
X117020000Y-139084500D01*
X116725000Y-148953100D02*
X116725000Y-147000000D01*
X123016000Y-146266000D02*
X123750000Y-147000000D01*
X120390200Y-143770200D02*
X120620000Y-144000000D01*
X112490000Y-160000000D02*
X112490000Y-162010000D01*
X117254600Y-143174800D02*
X117020000Y-143409400D01*
X135020000Y-140175000D02*
X135020000Y-141000000D01*
X123016000Y-145942500D02*
X123016000Y-146266000D01*
X117078700Y-149306800D02*
X116725000Y-148953100D01*
X120150000Y-147155800D02*
X120150000Y-147000000D01*
X120971600Y-147977400D02*
X120150000Y-147155800D01*
X125900000Y-141507300D02*
X125900000Y-142630000D01*
X117257600Y-135832000D02*
X117020000Y-135594400D01*
X131420000Y-144812800D02*
X131420000Y-144000000D01*
%TO.N,SDD2*%
X129200000Y-139238400D02*
X128113600Y-138152000D01*
X129200000Y-142630000D02*
X129200000Y-139238400D01*
%TO.N,SDD3*%
X128100000Y-139328700D02*
X126911400Y-138140100D01*
X128100000Y-142630000D02*
X128100000Y-139328700D01*
%TO.N,SDCMD*%
X127000000Y-139703900D02*
X125427800Y-138131700D01*
X127000000Y-142630000D02*
X127000000Y-139703900D01*
%TO.N,SDCLK*%
X124800000Y-142630000D02*
X124800000Y-138512200D01*
X124800000Y-138512200D02*
X124446400Y-138158600D01*
%TO.N,SDD0*%
X122600000Y-139125300D02*
X123560700Y-138164600D01*
X122600000Y-142630000D02*
X122600000Y-139125300D01*
%TO.N,SDD1*%
X121500000Y-142630000D02*
X121500000Y-141243900D01*
X121500000Y-141243900D02*
X120475000Y-140218900D01*
X120475000Y-140218900D02*
X120475000Y-136869500D01*
%TO.N,SDCD*%
X116388000Y-133473500D02*
X118243900Y-131617600D01*
X117707900Y-142630000D02*
X116388000Y-141310100D01*
X116388000Y-141310100D02*
X116388000Y-133473500D01*
X120550000Y-142630000D02*
X117707900Y-142630000D01*
%TD*%
M02*
